<svg xmlns="http://www.w3.org/2000/svg" xmlns:xlink="http://www.w3.org/1999/xlink" width="500" zoomAndPan="magnify" viewBox="0 0 375 374.999991" height="500" preserveAspectRatio="xMidYMid meet" version="1.0"><defs><clipPath id="id1"><path d="M 26.410156 29.957031 L 348.910156 29.957031 L 348.910156 352.457031 L 26.410156 352.457031 Z M 26.410156 29.957031 " clip-rule="nonzero"/></clipPath><clipPath id="id2"><path d="M 26.410156 29.957031 L 348.910156 29.957031 L 348.910156 352.457031 L 26.410156 352.457031 Z M 26.410156 29.957031 " clip-rule="nonzero"/></clipPath><clipPath id="id3"><path d="M 187.660156 29.957031 C 98.605469 29.957031 26.410156 102.152344 26.410156 191.207031 C 26.410156 280.265625 98.605469 352.457031 187.660156 352.457031 C 276.714844 352.457031 348.910156 280.265625 348.910156 191.207031 C 348.910156 102.152344 276.714844 29.957031 187.660156 29.957031 " clip-rule="nonzero"/></clipPath><clipPath id="id4"><path d="M 45.21875 52.710938 L 321.96875 52.710938 L 321.96875 321.960938 L 45.21875 321.960938 Z M 45.21875 52.710938 " clip-rule="nonzero"/></clipPath><clipPath id="id5"><path d="M 0 23 L 375 23 L 375 277.863281 L 0 277.863281 Z M 0 23 " clip-rule="nonzero"/></clipPath></defs><g clip-path="url(#id1)"><path fill="#cbaa00" d="M 187.660156 29.957031 C 98.605469 29.957031 26.410156 102.152344 26.410156 191.207031 C 26.410156 280.265625 98.605469 352.457031 187.660156 352.457031 C 276.714844 352.457031 348.910156 280.265625 348.910156 191.207031 C 348.910156 102.152344 276.714844 29.957031 187.660156 29.957031 " fill-opacity="1" fill-rule="nonzero"/></g><g clip-path="url(#id2)"><g clip-path="url(#id3)"><path stroke-linecap="butt" transform="matrix(0.750764, 0, 0, 0.750764, 26.410348, 29.958133)" fill="none" stroke-linejoin="miter" d="M 214.780998 -0.00146739 C 96.162223 -0.00146739 -0.000255681 96.161011 -0.000255681 214.779786 C -0.000255681 333.403764 96.162223 429.561039 214.780998 429.561039 C 333.399772 429.561039 429.562251 333.403764 429.562251 214.779786 C 429.562251 96.161011 333.399772 -0.00146739 214.780998 -0.00146739 " stroke="#000000" stroke-width="16" stroke-opacity="1" stroke-miterlimit="4"/></g></g><g clip-path="url(#id4)"><path fill="#e4bf03" d="M 183.59375 52.710938 C 107.171875 52.710938 45.222656 112.984375 45.222656 187.335938 C 45.222656 261.6875 107.171875 321.960938 183.59375 321.960938 C 260.015625 321.960938 321.96875 261.6875 321.96875 187.335938 C 321.96875 112.984375 260.015625 52.710938 183.59375 52.710938 " fill-opacity="1" fill-rule="nonzero"/></g><path fill="#6d6e71" d="M 104.226562 226.503906 L 108.941406 225.882812 C 106.785156 222.90625 104.910156 219.765625 103.316406 216.453125 C 96.894531 218.75 88.898438 222.804688 84.847656 229.464844 C 77.546875 241.542969 83.785156 256.664062 83.847656 256.816406 C 83.886719 256.90625 83.917969 257.003906 83.9375 257.101562 L 119.304688 257.101562 L 154.507812 250.546875 C 155.402344 250.40625 156.273438 250.179688 157.125 249.867188 C 157.972656 249.554688 158.785156 249.160156 159.554688 248.6875 C 160.328125 248.214844 161.046875 247.671875 161.710938 247.058594 C 162.375 246.441406 162.972656 245.769531 163.507812 245.035156 C 164.039062 244.304688 164.496094 243.527344 164.875 242.703125 C 165.253906 241.882812 165.546875 241.03125 165.757812 240.152344 C 165.972656 239.269531 166.09375 238.378906 166.128906 237.472656 C 166.167969 236.570312 166.113281 235.671875 165.972656 234.777344 C 165.832031 233.882812 165.601562 233.011719 165.289062 232.160156 C 164.976562 231.3125 164.582031 230.5 164.109375 229.726562 C 163.636719 228.957031 163.09375 228.238281 162.480469 227.574219 C 161.867188 226.90625 161.191406 226.308594 160.460938 225.777344 C 159.726562 225.246094 158.949219 224.789062 158.128906 224.410156 C 157.304688 224.03125 156.453125 223.734375 155.574219 223.523438 C 154.695312 223.3125 153.800781 223.1875 152.898438 223.152344 C 151.992188 223.117188 151.09375 223.171875 150.199219 223.3125 L 104.640625 229.28125 C 104.460938 229.292969 104.285156 229.269531 104.113281 229.214844 C 103.941406 229.15625 103.785156 229.074219 103.648438 228.957031 C 103.507812 228.84375 103.394531 228.707031 103.308594 228.550781 C 103.222656 228.390625 103.164062 228.222656 103.140625 228.042969 C 103.117188 227.867188 103.128906 227.6875 103.171875 227.515625 C 103.21875 227.339844 103.292969 227.179688 103.394531 227.03125 C 103.5 226.886719 103.628906 226.761719 103.78125 226.664062 C 103.933594 226.566406 104.097656 226.5 104.273438 226.464844 Z M 104.226562 226.503906 " fill-opacity="1" fill-rule="nonzero"/><path fill="#ed1c24" d="M 212.257812 27.660156 L 132.113281 27.660156 L 111 147.292969 L 233.363281 147.292969 Z M 212.257812 27.660156 " fill-opacity="1" fill-rule="nonzero"/><path fill="#d30f1e" d="M 113.671875 135.226562 L 111.679688 146.476562 L 234.046875 146.476562 L 212.9375 26.878906 L 208.769531 26.878906 L 224.9375 137.085938 C 224.9375 137.085938 151.371094 134.667969 113.671875 135.226562 Z M 113.671875 135.226562 " fill-opacity="1" fill-rule="nonzero"/><path fill="#ffffff" d="M 105.390625 214.242188 C 107.140625 218.039062 109.273438 221.609375 111.78125 224.957031 C 111.894531 225.105469 111.972656 225.273438 112.019531 225.453125 L 138.421875 221.996094 C 138.359375 221.878906 138.28125 221.773438 138.230469 221.660156 C 135.097656 215.34375 136.238281 207.675781 140.9375 203.429688 C 145.003906 199.753906 150.734375 199.160156 155.273438 199.050781 L 157.722656 199.050781 C 161.71875 199.011719 165.488281 198.984375 168.941406 197.644531 C 172.769531 196.167969 176.203125 192.285156 175.386719 188.320312 C 175.328125 188.027344 175.363281 187.746094 175.484375 187.472656 C 175.609375 187.199219 175.800781 186.988281 176.054688 186.835938 C 176.3125 186.683594 176.589844 186.621094 176.890625 186.644531 C 177.1875 186.667969 177.453125 186.777344 177.679688 186.96875 C 177.910156 186.777344 178.175781 186.667969 178.472656 186.644531 C 178.769531 186.621094 179.046875 186.683594 179.304688 186.835938 C 179.5625 186.988281 179.753906 187.199219 179.875 187.472656 C 180 187.746094 180.035156 188.027344 179.976562 188.320312 C 179.15625 192.277344 182.609375 196.167969 186.421875 197.644531 C 189.871094 198.984375 193.644531 199.011719 197.640625 199.050781 L 200.089844 199.050781 C 204.628906 199.160156 210.359375 199.753906 214.421875 203.429688 C 219.121094 207.675781 220.261719 215.34375 217.132812 221.652344 C 214.554688 226.863281 209.425781 231.019531 202.707031 233.34375 C 196.84375 235.371094 190.660156 235.832031 184.683594 236.277344 L 170.664062 236.277344 L 168.605469 236.113281 C 168.558594 236.15625 168.511719 236.195312 168.460938 236.230469 C 168.507812 237.222656 168.46875 238.210938 168.339844 239.199219 C 168.210938 240.183594 167.996094 241.152344 167.695312 242.101562 C 167.394531 243.046875 167.011719 243.960938 166.546875 244.839844 C 166.082031 245.71875 165.542969 246.550781 164.929688 247.332031 C 164.316406 248.113281 163.636719 248.835938 162.894531 249.5 C 162.152344 250.160156 161.355469 250.75 160.507812 251.269531 C 159.660156 251.789062 158.773438 252.226562 157.84375 252.585938 C 156.917969 252.945312 155.964844 253.222656 154.988281 253.410156 L 134.808594 257.167969 L 183.75 257.167969 C 199.667969 257.039062 215.179688 254.109375 228.613281 248.589844 C 228.785156 248.527344 228.964844 248.496094 229.148438 248.5 C 229.332031 248.507812 229.507812 248.546875 229.679688 248.621094 C 229.847656 248.695312 229.996094 248.796875 230.125 248.929688 C 230.253906 249.0625 230.351562 249.214844 230.421875 249.382812 C 230.492188 249.554688 230.527344 249.734375 230.53125 249.917969 C 230.53125 250.101562 230.496094 250.28125 230.429688 250.453125 C 230.359375 250.621094 230.261719 250.773438 230.136719 250.910156 C 230.007812 251.042969 229.859375 251.144531 229.691406 251.222656 C 223.355469 253.789062 216.839844 255.769531 210.144531 257.167969 L 324.605469 257.167969 C 324.910156 256.722656 325.1875 256.261719 325.4375 255.785156 C 325.691406 255.308594 325.914062 254.820312 326.105469 254.316406 C 326.300781 253.8125 326.464844 253.300781 326.597656 252.777344 C 326.734375 252.253906 326.835938 251.726562 326.910156 251.191406 C 326.984375 250.65625 327.023438 250.121094 327.035156 249.582031 C 327.042969 249.042969 327.023438 248.503906 326.96875 247.96875 C 326.917969 247.429688 326.832031 246.898438 326.71875 246.371094 C 326.601562 245.84375 326.457031 245.328125 326.28125 244.816406 C 326.109375 244.308594 325.902344 243.808594 325.667969 243.324219 C 325.4375 242.835938 325.175781 242.367188 324.886719 241.910156 C 324.597656 241.453125 324.285156 241.015625 323.945312 240.597656 C 323.605469 240.179688 323.242188 239.78125 322.859375 239.402344 C 322.472656 239.027344 322.066406 238.671875 321.636719 238.34375 C 321.210938 238.015625 320.765625 237.710938 320.304688 237.433594 C 319.839844 237.15625 319.363281 236.90625 318.875 236.683594 C 318.382812 236.464844 317.878906 236.269531 317.363281 236.109375 L 268.769531 220.625 C 268.582031 220.570312 268.414062 220.476562 268.269531 220.34375 C 264.609375 226.230469 260.160156 231.445312 254.914062 235.984375 C 254.648438 236.214844 254.335938 236.335938 253.980469 236.335938 C 253.6875 236.335938 253.417969 236.25 253.171875 236.082031 C 252.929688 235.914062 252.757812 235.691406 252.652344 235.414062 C 252.546875 235.136719 252.53125 234.851562 252.605469 234.566406 C 252.679688 234.277344 252.824219 234.039062 253.046875 233.84375 C 267.167969 221.511719 274.628906 205.433594 274.628906 187.335938 C 274.613281 180.644531 273.714844 174.074219 271.933594 167.625 C 270.148438 161.175781 267.546875 155.078125 264.121094 149.328125 L 110.203125 149.328125 C 106.78125 155.074219 104.179688 161.171875 102.394531 167.617188 C 100.613281 174.0625 99.710938 180.632812 99.695312 187.320312 C 99.648438 191.914062 100.09375 196.460938 101.027344 200.957031 C 101.964844 205.457031 103.371094 209.804688 105.246094 213.996094 C 105.300781 214.074219 105.351562 214.15625 105.390625 214.242188 Z M 110.59375 162.59375 C 110.59375 162.40625 110.628906 162.222656 110.703125 162.050781 C 110.773438 161.875 110.875 161.722656 111.007812 161.589844 C 111.140625 161.457031 111.296875 161.355469 111.46875 161.285156 C 111.640625 161.210938 111.824219 161.175781 112.011719 161.175781 L 241.660156 161.175781 C 241.847656 161.175781 242.03125 161.210938 242.203125 161.28125 C 242.378906 161.351562 242.53125 161.457031 242.667969 161.589844 C 242.800781 161.722656 242.902344 161.875 242.976562 162.046875 C 243.046875 162.222656 243.085938 162.402344 243.085938 162.59375 L 243.085938 179.886719 C 243.082031 180.722656 243 181.550781 242.835938 182.371094 C 242.671875 183.191406 242.429688 183.984375 242.113281 184.757812 C 241.792969 185.527344 241.398438 186.261719 240.933594 186.957031 C 240.46875 187.652344 239.941406 188.292969 239.351562 188.886719 C 238.761719 189.476562 238.121094 190.003906 237.425781 190.46875 C 236.730469 190.933594 235.996094 191.328125 235.226562 191.648438 C 234.453125 191.96875 233.660156 192.210938 232.839844 192.375 C 232.019531 192.539062 231.191406 192.621094 230.355469 192.621094 L 202.238281 192.621094 C 201.402344 192.621094 200.578125 192.539062 199.757812 192.375 C 198.9375 192.210938 198.144531 191.96875 197.371094 191.648438 C 196.597656 191.328125 195.867188 190.933594 195.171875 190.46875 C 194.476562 190.003906 193.835938 189.476562 193.246094 188.886719 C 192.652344 188.292969 192.125 187.652344 191.660156 186.957031 C 191.199219 186.261719 190.804688 185.527344 190.484375 184.757812 C 190.164062 183.984375 189.921875 183.191406 189.761719 182.371094 C 189.597656 181.550781 189.515625 180.722656 189.511719 179.886719 L 189.511719 174.53125 L 164.347656 174.53125 L 164.347656 179.886719 C 164.347656 180.726562 164.265625 181.554688 164.101562 182.375 C 163.941406 183.195312 163.699219 183.992188 163.378906 184.765625 C 163.054688 185.539062 162.664062 186.277344 162.199219 186.972656 C 161.734375 187.667969 161.207031 188.3125 160.613281 188.902344 C 160.023438 189.496094 159.378906 190.023438 158.683594 190.492188 C 157.984375 190.957031 157.25 191.347656 156.476562 191.671875 C 155.703125 191.992188 154.90625 192.234375 154.085938 192.398438 C 153.265625 192.5625 152.4375 192.644531 151.597656 192.644531 L 123.34375 192.644531 C 122.507812 192.644531 121.679688 192.5625 120.855469 192.398438 C 120.035156 192.234375 119.238281 191.992188 118.464844 191.671875 C 117.691406 191.347656 116.957031 190.957031 116.261719 190.492188 C 115.566406 190.023438 114.921875 189.496094 114.332031 188.902344 C 113.738281 188.3125 113.210938 187.667969 112.746094 186.972656 C 112.28125 186.277344 111.886719 185.539062 111.566406 184.765625 C 111.246094 183.992188 111.003906 183.195312 110.839844 182.375 C 110.675781 181.554688 110.59375 180.726562 110.59375 179.886719 Z M 110.59375 162.59375 " fill-opacity="1" fill-rule="nonzero"/><path fill="#e6e7e8" d="M 241.660156 161.175781 C 241.847656 161.175781 242.03125 161.210938 242.203125 161.28125 C 242.378906 161.351562 242.53125 161.457031 242.667969 161.589844 C 242.800781 161.722656 242.902344 161.875 242.976562 162.046875 C 243.046875 162.222656 243.085938 162.402344 243.085938 162.59375 L 243.085938 179.886719 C 243.085938 182.476562 242.363281 184.84375 240.910156 186.988281 C 239.273438 213.085938 224.648438 243.460938 166.195312 245.4375 C 165.597656 246.460938 164.902344 247.414062 164.105469 248.292969 C 163.304688 249.167969 162.421875 249.949219 161.457031 250.636719 C 160.488281 251.328125 159.460938 251.902344 158.371094 252.371094 C 157.28125 252.839844 156.152344 253.183594 154.988281 253.410156 L 134.808594 257.167969 L 183.75 257.167969 C 199.667969 257.039062 215.179688 254.109375 228.613281 248.589844 C 228.785156 248.527344 228.964844 248.496094 229.148438 248.5 C 229.332031 248.507812 229.507812 248.546875 229.679688 248.621094 C 229.847656 248.695312 229.996094 248.796875 230.125 248.929688 C 230.253906 249.0625 230.351562 249.214844 230.421875 249.382812 C 230.492188 249.554688 230.527344 249.734375 230.53125 249.917969 C 230.53125 250.101562 230.496094 250.28125 230.429688 250.453125 C 230.359375 250.621094 230.261719 250.773438 230.136719 250.910156 C 230.007812 251.042969 229.859375 251.144531 229.691406 251.222656 C 223.355469 253.789062 216.839844 255.769531 210.144531 257.167969 L 253.9375 257.167969 L 266.945312 247.847656 C 266.945312 247.847656 272.386719 234.835938 277.285156 223.359375 L 268.753906 220.640625 C 268.566406 220.585938 268.398438 220.488281 268.253906 220.359375 C 264.59375 226.246094 260.144531 231.460938 254.902344 236 C 254.632812 236.230469 254.320312 236.347656 253.96875 236.351562 C 253.671875 236.351562 253.402344 236.265625 253.15625 236.097656 C 252.914062 235.929688 252.742188 235.707031 252.636719 235.429688 C 252.535156 235.148438 252.519531 234.867188 252.589844 234.582031 C 252.664062 234.292969 252.808594 234.050781 253.03125 233.859375 C 267.152344 221.527344 274.613281 205.449219 274.613281 187.351562 C 274.605469 180.65625 273.707031 174.085938 271.925781 167.632812 C 270.148438 161.183594 267.546875 155.082031 264.121094 149.328125 L 235.714844 149.328125 C 237.042969 153.210938 238.101562 157.167969 238.898438 161.191406 Z M 241.660156 161.175781 " fill-opacity="1" fill-rule="nonzero"/><path fill="#ffe6bc" d="M 123.34375 189.777344 L 151.597656 189.777344 C 152.25 189.769531 152.890625 189.703125 153.527344 189.574219 C 154.160156 189.445312 154.777344 189.253906 155.375 189.003906 C 155.976562 188.75 156.542969 188.445312 157.082031 188.082031 C 157.621094 187.722656 158.117188 187.3125 158.578125 186.851562 C 159.035156 186.390625 159.445312 185.890625 159.804688 185.351562 C 160.164062 184.8125 160.46875 184.242188 160.71875 183.644531 C 160.96875 183.046875 161.15625 182.429688 161.285156 181.792969 C 161.410156 181.15625 161.476562 180.515625 161.480469 179.863281 L 161.480469 173.109375 C 161.476562 172.890625 161.523438 172.683594 161.617188 172.488281 C 161.710938 172.296875 161.84375 172.128906 162.011719 171.996094 C 162.183594 171.859375 162.371094 171.769531 162.585938 171.722656 C 162.796875 171.675781 163.007812 171.679688 163.21875 171.730469 C 163.324219 171.707031 163.429688 171.691406 163.539062 171.691406 L 189.796875 171.691406 C 189.992188 171.691406 190.179688 171.730469 190.363281 171.804688 C 190.539062 171.726562 190.726562 171.691406 190.921875 171.691406 C 191.109375 171.691406 191.289062 171.726562 191.464844 171.796875 C 191.640625 171.867188 191.792969 171.972656 191.925781 172.105469 C 192.0625 172.238281 192.164062 172.390625 192.234375 172.5625 C 192.308594 172.738281 192.34375 172.917969 192.34375 173.109375 L 192.34375 179.886719 C 192.34375 180.535156 192.410156 181.179688 192.535156 181.816406 C 192.664062 182.453125 192.851562 183.070312 193.101562 183.667969 C 193.351562 184.269531 193.65625 184.839844 194.015625 185.378906 C 194.375 185.917969 194.785156 186.417969 195.246094 186.875 C 195.703125 187.335938 196.203125 187.742188 196.742188 188.105469 C 197.28125 188.464844 197.851562 188.769531 198.449219 189.019531 C 199.050781 189.269531 199.667969 189.457031 200.304688 189.582031 C 200.941406 189.710938 201.582031 189.773438 202.230469 189.777344 L 230.355469 189.777344 C 231.007812 189.773438 231.648438 189.710938 232.285156 189.585938 C 232.921875 189.457031 233.542969 189.269531 234.140625 189.019531 C 234.742188 188.773438 235.3125 188.46875 235.851562 188.105469 C 236.390625 187.746094 236.890625 187.335938 237.347656 186.878906 C 237.808594 186.417969 238.21875 185.917969 238.578125 185.378906 C 238.941406 184.839844 239.246094 184.269531 239.496094 183.671875 C 239.742188 183.070312 239.933594 182.453125 240.058594 181.816406 C 240.1875 181.179688 240.25 180.539062 240.253906 179.886719 L 240.253906 164.015625 L 113.433594 164.015625 L 113.433594 179.863281 C 113.4375 180.515625 113.5 181.160156 113.628906 181.796875 C 113.757812 182.433594 113.949219 183.050781 114.199219 183.652344 C 114.449219 184.25 114.753906 184.820312 115.117188 185.363281 C 115.476562 185.902344 115.886719 186.402344 116.347656 186.863281 C 116.808594 187.320312 117.308594 187.730469 117.847656 188.09375 C 118.386719 188.457031 118.957031 188.761719 119.558594 189.011719 C 120.15625 189.261719 120.777344 189.449219 121.414062 189.578125 C 122.050781 189.707031 122.695312 189.773438 123.34375 189.777344 Z M 123.34375 189.777344 " fill-opacity="1" fill-rule="nonzero"/><path fill="#ffe6bc" d="M 328.980469 243.90625 C 329.355469 244.984375 329.613281 246.089844 329.757812 247.226562 C 329.902344 248.359375 329.929688 249.492188 329.839844 250.632812 C 329.75 251.769531 329.542969 252.886719 329.21875 253.984375 C 328.898438 255.082031 328.464844 256.132812 327.925781 257.136719 L 354.878906 257.136719 C 354.808594 256.9375 354.789062 256.730469 354.820312 256.519531 C 354.867188 255.984375 354.863281 255.453125 354.8125 254.917969 C 354.761719 254.386719 354.660156 253.863281 354.507812 253.351562 C 354.355469 252.835938 354.160156 252.339844 353.914062 251.863281 C 353.671875 251.390625 353.382812 250.941406 353.054688 250.515625 C 352.726562 250.09375 352.363281 249.707031 351.960938 249.351562 C 351.558594 249 351.125 248.6875 350.664062 248.414062 C 350.203125 248.140625 349.722656 247.914062 349.21875 247.734375 C 348.714844 247.550781 348.199219 247.417969 347.671875 247.335938 C 347.234375 247.28125 346.796875 247.265625 346.363281 247.25 C 345.566406 247.242188 344.777344 247.160156 343.996094 247.011719 C 343.152344 246.886719 342.390625 246.554688 341.71875 246.027344 C 341.046875 245.496094 340.546875 244.835938 340.222656 244.042969 C 339.695312 242.511719 340.222656 241.074219 340.675781 239.910156 C 340.898438 239.394531 341.0625 238.863281 341.164062 238.3125 C 341.441406 236.320312 339.304688 234.484375 337.210938 234.164062 C 334.414062 233.816406 331.707031 234.15625 329.082031 235.171875 C 328.871094 235.257812 328.652344 235.285156 328.425781 235.265625 C 328.199219 235.242188 327.992188 235.167969 327.800781 235.046875 C 327.609375 234.925781 327.457031 234.769531 327.339844 234.574219 C 327.226562 234.378906 327.160156 234.167969 327.144531 233.941406 C 327.09375 233.136719 326.914062 232.367188 326.597656 231.625 C 326.28125 230.882812 325.851562 230.214844 325.308594 229.621094 C 324.765625 229.027344 324.136719 228.542969 323.425781 228.164062 C 322.71875 227.785156 321.964844 227.535156 321.167969 227.414062 C 320.371094 227.292969 319.578125 227.308594 318.789062 227.457031 C 317.996094 227.609375 317.253906 227.886719 316.558594 228.292969 C 315.863281 228.699219 315.253906 229.210938 314.734375 229.824219 C 314.210938 230.4375 313.808594 231.121094 313.523438 231.875 L 318.207031 233.367188 C 319.457031 233.757812 320.644531 234.289062 321.769531 234.960938 C 322.894531 235.632812 323.921875 236.425781 324.859375 237.34375 C 325.796875 238.257812 326.613281 239.269531 327.308594 240.378906 C 328.007812 241.488281 328.5625 242.664062 328.980469 243.90625 Z M 328.980469 243.90625 " fill-opacity="1" fill-rule="nonzero"/><path fill="#d30f1e" d="M 263.226562 146.476562 L 242.113281 26.84375 L 215.824219 26.84375 L 236.9375 146.476562 Z M 263.226562 146.476562 " fill-opacity="1" fill-rule="nonzero"/><path fill="#ffe6bc" d="M 14.28125 257.136719 L 80.902344 257.136719 C 79.605469 253.648438 75.269531 239.835938 82.429688 228.054688 C 86.855469 220.738281 95.304688 216.371094 102.136719 213.898438 C 100.429688 209.886719 99.15625 205.742188 98.3125 201.460938 C 98.074219 201.570312 97.824219 201.609375 97.566406 201.582031 C 97.304688 201.554688 97.074219 201.460938 96.863281 201.300781 C 94.402344 199.402344 91.5625 197.597656 89.171875 198.554688 C 87.222656 199.320312 86.21875 201.753906 85.238281 204.085938 L 85.101562 204.421875 C 83.363281 208.578125 81.023438 210.761719 78.136719 210.90625 C 76.039062 211.011719 74.25 209.925781 72.664062 208.96875 C 71.082031 208.011719 69.84375 207.269531 68.59375 207.554688 C 67.222656 207.859375 66.375 209.519531 66.296875 210.921875 C 66.175781 212.582031 66.726562 214.265625 67.300781 216.054688 L 67.414062 216.421875 C 68.074219 218.46875 68.730469 220.839844 68.25 223.210938 C 68.160156 223.652344 67.980469 224.050781 67.714844 224.410156 C 67.445312 224.765625 67.113281 225.050781 66.71875 225.261719 C 64.355469 226.632812 60.382812 225.371094 59.9375 225.226562 C 59.496094 225.078125 59.089844 224.917969 58.660156 224.757812 C 57.128906 224.191406 55.691406 223.65625 54.445312 223.992188 C 52.78125 224.445312 51.863281 226.472656 51.835938 228.140625 C 51.796875 230.238281 52.746094 232.402344 53.578125 234.324219 C 53.652344 234.488281 53.691406 234.660156 53.699219 234.839844 C 53.707031 235.019531 53.679688 235.195312 53.621094 235.367188 C 53.558594 235.535156 53.472656 235.6875 53.351562 235.824219 C 53.234375 235.960938 53.097656 236.070312 52.9375 236.152344 C 50.386719 237.46875 47.457031 236.09375 45.558594 234.363281 C 44.136719 233.070312 42.652344 231.921875 41.457031 232.328125 C 40.710938 232.722656 40.097656 233.269531 39.628906 233.972656 C 38.722656 235.066406 37.691406 236.269531 35.984375 236.589844 C 33.8125 236.949219 32.210938 235.527344 30.933594 234.378906 C 30.054688 233.613281 29.226562 232.847656 28.394531 232.71875 C 27.835938 232.640625 27.339844 232.785156 26.90625 233.144531 C 26.027344 233.875 25.515625 234.804688 25.378906 235.9375 C 25.316406 237.515625 25.515625 239.058594 25.980469 240.570312 C 26.144531 241.265625 26.3125 241.953125 26.441406 242.644531 C 26.824219 244.6875 27.070312 248.453125 24.429688 250.710938 C 22.789062 252.117188 20.671875 252.378906 18.652344 252.515625 C 17.082031 252.621094 15.460938 252.738281 14.386719 253.542969 C 13.878906 253.949219 13.605469 254.480469 13.570312 255.132812 C 13.53125 255.421875 13.617188 255.664062 13.828125 255.859375 C 14.210938 256.203125 14.363281 256.628906 14.28125 257.136719 Z M 14.28125 257.136719 " fill-opacity="1" fill-rule="nonzero"/><path fill="#c49a6c" d="M 183.757812 259.984375 L 3.828125 259.984375 L 3.828125 273.898438 L 371.25 273.898438 L 371.25 259.984375 Z M 183.757812 259.984375 " fill-opacity="1" fill-rule="nonzero"/><path fill="#ffe6bc" d="M 172.53125 233.34375 L 172.15625 233.460938 L 173.6875 233.460938 C 173.617188 233.414062 173.539062 233.390625 173.472656 233.34375 C 173.15625 233.230469 172.84375 233.230469 172.53125 233.34375 Z M 172.53125 233.34375 " fill-opacity="1" fill-rule="nonzero"/><path fill="#232323" d="M 178.316406 233.460938 L 184.628906 233.460938 C 190.40625 233.03125 196.378906 232.578125 201.878906 230.679688 C 207.886719 228.601562 212.441406 224.957031 214.691406 220.417969 C 217.222656 215.304688 216.328125 208.9375 212.617188 205.554688 C 209.25 202.496094 204.199219 202.011719 200.121094 201.921875 C 199.355469 201.921875 198.519531 201.921875 197.71875 201.882812 C 193.636719 201.882812 189.429688 201.8125 185.472656 200.285156 C 183.734375 199.621094 182.195312 198.648438 180.855469 197.363281 C 179.511719 196.078125 178.472656 194.582031 177.734375 192.875 C 176.996094 194.582031 175.957031 196.078125 174.613281 197.363281 C 173.269531 198.648438 171.726562 199.621094 169.988281 200.285156 C 166.054688 201.8125 161.839844 201.8125 157.746094 201.882812 C 156.980469 201.882812 156.136719 201.882812 155.34375 201.921875 C 151.292969 202.011719 146.210938 202.511719 142.84375 205.5625 C 139.132812 208.917969 138.253906 215.304688 140.769531 220.417969 C 140.976562 220.824219 141.214844 221.222656 141.453125 221.621094 L 149.234375 220.601562 C 147.535156 217.792969 146.738281 212.863281 149.058594 210.378906 C 149.363281 210.0625 149.695312 209.777344 150.050781 209.519531 C 150.40625 209.265625 150.785156 209.042969 151.179688 208.851562 C 151.574219 208.664062 151.984375 208.511719 152.410156 208.394531 C 152.832031 208.277344 153.261719 208.199219 153.699219 208.160156 C 154.136719 208.121094 154.574219 208.121094 155.011719 208.15625 C 155.449219 208.195312 155.878906 208.273438 156.300781 208.386719 C 156.726562 208.5 157.136719 208.652344 157.53125 208.839844 C 157.929688 209.027344 158.304688 209.25 158.664062 209.503906 C 160.40625 210.804688 161.5625 212.851562 162.097656 215.628906 C 164.378906 214.894531 166.710938 214.65625 169.09375 214.917969 C 170.066406 215.042969 170.972656 215.359375 171.816406 215.859375 C 172.660156 216.359375 173.375 217.003906 173.953125 217.792969 C 174.390625 218.375 174.691406 219.023438 174.855469 219.734375 C 175.015625 220.445312 175.027344 221.15625 174.886719 221.871094 C 174.816406 222.171875 174.730469 222.46875 174.628906 222.761719 C 174.515625 223.046875 174.449219 223.34375 174.429688 223.648438 C 174.429688 223.960938 174.964844 224.367188 175.628906 224.636719 C 175.875 224.734375 176.128906 224.820312 176.394531 224.902344 C 177.304688 225.160156 178.136719 225.570312 178.890625 226.144531 C 179.324219 226.523438 179.675781 226.96875 179.945312 227.476562 C 180.214844 227.988281 180.382812 228.53125 180.449219 229.105469 C 180.515625 229.675781 180.476562 230.242188 180.332031 230.800781 C 180.1875 231.359375 179.945312 231.875 179.609375 232.34375 C 179.253906 232.800781 178.824219 233.175781 178.316406 233.460938 Z M 178.316406 233.460938 " fill-opacity="1" fill-rule="nonzero"/><path fill="#ffe6bc" d="M 177.328125 230.605469 C 177.445312 230.429688 177.527344 230.238281 177.578125 230.03125 C 177.625 229.824219 177.636719 229.617188 177.613281 229.40625 C 177.589844 229.199219 177.527344 229 177.433594 228.808594 C 177.339844 228.621094 177.214844 228.453125 177.0625 228.308594 C 176.574219 227.960938 176.042969 227.707031 175.46875 227.542969 C 175.171875 227.445312 174.878906 227.34375 174.589844 227.230469 C 172.859375 226.542969 171.773438 225.332031 171.613281 223.917969 C 171.5625 223.199219 171.671875 222.503906 171.933594 221.835938 C 172.007812 221.640625 172.066406 221.441406 172.109375 221.238281 C 172.226562 220.558594 172.074219 219.945312 171.652344 219.402344 C 170.925781 218.425781 169.960938 217.855469 168.757812 217.6875 C 166.25 217.425781 163.84375 217.8125 161.539062 218.84375 C 161.332031 218.9375 161.109375 218.980469 160.878906 218.972656 C 160.648438 218.960938 160.433594 218.898438 160.234375 218.78125 C 160.03125 218.664062 159.871094 218.511719 159.746094 218.316406 C 159.621094 218.121094 159.550781 217.910156 159.527344 217.679688 C 159.351562 215.71875 158.761719 213.085938 156.972656 211.769531 C 156.53125 211.46875 156.054688 211.25 155.535156 211.117188 C 155.019531 210.984375 154.496094 210.941406 153.964844 210.988281 C 153.433594 211.035156 152.925781 211.171875 152.441406 211.398438 C 151.957031 211.621094 151.527344 211.921875 151.148438 212.296875 C 149.832031 213.714844 150.589844 217.976562 152.074219 219.691406 C 152.265625 219.910156 152.375 220.167969 152.402344 220.457031 C 153.285156 220.488281 154.160156 220.589844 155.027344 220.757812 C 155.890625 220.925781 156.738281 221.164062 157.570312 221.46875 C 158.398438 221.773438 159.195312 222.140625 159.96875 222.570312 C 160.738281 223.003906 161.46875 223.492188 162.160156 224.039062 C 162.855469 224.585938 163.5 225.183594 164.097656 225.832031 C 164.695312 226.484375 165.238281 227.175781 165.726562 227.910156 C 166.214844 228.648438 166.640625 229.417969 167.007812 230.21875 C 167.375 231.023438 167.671875 231.851562 167.90625 232.703125 C 169.070312 231.675781 170.398438 230.96875 171.894531 230.574219 C 172.425781 230.417969 172.964844 230.375 173.511719 230.445312 C 174.058594 230.515625 174.570312 230.699219 175.039062 230.988281 C 175.222656 231.097656 175.417969 231.167969 175.628906 231.207031 C 175.835938 231.246094 176.046875 231.25 176.253906 231.214844 C 176.464844 231.179688 176.660156 231.109375 176.847656 231.003906 C 177.03125 230.898438 177.191406 230.765625 177.328125 230.605469 Z M 177.328125 230.605469 " fill-opacity="1" fill-rule="nonzero"/><path fill="#ff7d87" d="M 170.871094 215.359375 C 172.117188 215.871094 173.136719 216.671875 173.929688 217.761719 C 174.367188 218.347656 174.667969 218.992188 174.832031 219.703125 C 174.992188 220.414062 175.003906 221.125 174.863281 221.84375 C 174.792969 222.140625 174.707031 222.4375 174.605469 222.730469 C 174.492188 223.015625 174.425781 223.3125 174.40625 223.617188 C 174.40625 223.929688 174.941406 224.335938 175.605469 224.605469 C 175.851562 224.703125 176.105469 224.789062 176.371094 224.871094 C 177.28125 225.128906 178.113281 225.542969 178.867188 226.113281 C 179.300781 226.492188 179.652344 226.9375 179.921875 227.449219 C 180.191406 227.957031 180.359375 228.5 180.425781 229.074219 C 180.492188 229.644531 180.453125 230.210938 180.308594 230.769531 C 180.164062 231.328125 179.921875 231.84375 179.585938 232.3125 C 179.226562 232.785156 178.789062 233.167969 178.269531 233.460938 L 184.585938 233.460938 C 190.363281 233.03125 196.332031 232.578125 201.835938 230.679688 C 207.84375 228.601562 212.394531 224.957031 214.644531 220.417969 C 215.089844 219.519531 215.433594 218.585938 215.675781 217.613281 C 215.914062 216.640625 216.046875 215.65625 216.074219 214.652344 C 216.097656 213.652344 216.011719 212.660156 215.820312 211.675781 C 215.628906 210.691406 215.328125 209.742188 214.929688 208.824219 C 209.675781 207.007812 204.269531 206.113281 198.710938 206.136719 C 187.5 206.136719 177.429688 209.734375 170.871094 215.359375 Z M 170.871094 215.359375 " fill-opacity="1" fill-rule="nonzero"/><path fill="#ffffff" d="M 149.480469 26.84375 L 129.558594 146.476562 L 111.679688 146.476562 L 132.796875 26.84375 Z M 149.480469 26.84375 " fill-opacity="1" fill-rule="nonzero"/><path fill="#ffffff" d="M 196.929688 26.84375 L 216.84375 146.476562 L 234.71875 146.476562 L 213.605469 26.84375 Z M 196.929688 26.84375 " fill-opacity="1" fill-rule="nonzero"/><path fill="#e6e7e8" d="M 230.617188 26.84375 L 250.53125 146.476562 L 262.730469 146.476562 L 241.613281 26.84375 Z M 230.617188 26.84375 " fill-opacity="1" fill-rule="nonzero"/><path fill="#ffffff" d="M 166.46875 26.84375 L 157.253906 146.476562 L 188.480469 146.476562 L 179.265625 26.84375 Z M 166.46875 26.84375 " fill-opacity="1" fill-rule="nonzero"/><path fill="#6d6e71" d="M 219.757812 155.207031 C 214 156.066406 208.667969 158.054688 203.753906 161.175781 L 241.660156 161.175781 C 241.847656 161.175781 242.03125 161.210938 242.203125 161.28125 C 242.378906 161.351562 242.53125 161.457031 242.667969 161.589844 C 242.800781 161.722656 242.902344 161.875 242.976562 162.046875 C 243.046875 162.222656 243.085938 162.402344 243.085938 162.59375 L 243.085938 179.886719 C 243.082031 180.722656 243 181.550781 242.835938 182.371094 C 242.671875 183.191406 242.429688 183.984375 242.113281 184.757812 C 241.792969 185.527344 241.398438 186.261719 240.933594 186.957031 C 240.46875 187.652344 239.941406 188.292969 239.351562 188.886719 C 238.761719 189.476562 238.121094 190.003906 237.425781 190.46875 C 236.730469 190.933594 235.996094 191.328125 235.226562 191.648438 C 234.453125 191.96875 233.660156 192.210938 232.839844 192.375 C 232.019531 192.539062 231.191406 192.621094 230.355469 192.621094 L 202.238281 192.621094 C 200.859375 192.625 199.511719 192.40625 198.203125 191.964844 C 196.890625 191.527344 195.6875 190.886719 194.585938 190.050781 C 195.605469 191.859375 196.929688 193.40625 198.558594 194.6875 C 202.253906 197.574219 206.976562 198.644531 211.570312 199.632812 L 235.421875 204.785156 C 240.414062 205.855469 245.625 206.933594 250.5625 205.648438 C 259.578125 203.296875 265.0625 193.304688 264.652344 183.996094 C 264.296875 176.03125 259.804688 163.929688 252.652344 159.46875 C 243.71875 153.875 229.820312 153.515625 219.757812 155.207031 Z M 219.757812 155.207031 " fill-opacity="1" fill-rule="nonzero"/><path fill="#58595b" d="M 238.921875 161.175781 L 241.660156 161.175781 C 241.847656 161.175781 242.03125 161.210938 242.203125 161.28125 C 242.378906 161.351562 242.53125 161.457031 242.667969 161.589844 C 242.800781 161.722656 242.902344 161.875 242.976562 162.046875 C 243.046875 162.222656 243.085938 162.402344 243.085938 162.59375 L 243.085938 179.886719 C 243.085938 180.285156 243.085938 180.652344 243.023438 181.058594 C 243.023438 181.171875 243.023438 181.289062 242.984375 181.402344 C 242.984375 181.6875 242.90625 181.960938 242.855469 182.238281 C 242.855469 182.351562 242.816406 182.46875 242.792969 182.574219 C 242.71875 182.945312 242.625 183.308594 242.511719 183.667969 C 242.394531 184.011719 242.273438 184.351562 242.136719 184.6875 L 241.996094 185 C 241.890625 185.246094 241.769531 185.488281 241.644531 185.726562 C 241.59375 185.828125 241.546875 185.925781 241.484375 186.035156 C 241.308594 186.347656 241.125 186.660156 240.925781 186.960938 C 240.578125 193.203125 239.394531 199.28125 237.375 205.195312 C 241.777344 206.109375 246.296875 206.78125 250.613281 205.664062 C 259.628906 203.3125 265.117188 193.320312 264.703125 184.011719 C 264.351562 176.046875 259.859375 163.945312 252.703125 159.484375 C 248.402344 156.804688 242.976562 155.335938 237.398438 154.710938 C 237.863281 156.492188 238.402344 158.671875 238.921875 161.175781 Z M 238.921875 161.175781 " fill-opacity="1" fill-rule="nonzero"/><path fill="#6d6e71" d="M 145.054688 199.632812 C 149.648438 198.644531 154.402344 197.574219 158.066406 194.6875 C 162.910156 190.910156 165.121094 184.328125 164.320312 178.226562 L 164.320312 179.863281 C 164.320312 180.703125 164.234375 181.53125 164.074219 182.351562 C 163.910156 183.171875 163.667969 183.972656 163.347656 184.746094 C 163.027344 185.519531 162.632812 186.253906 162.167969 186.949219 C 161.703125 187.644531 161.175781 188.289062 160.582031 188.882812 C 159.992188 189.472656 159.347656 190.003906 158.652344 190.46875 C 157.957031 190.933594 157.21875 191.328125 156.449219 191.648438 C 155.675781 191.96875 154.878906 192.210938 154.054688 192.375 C 153.234375 192.539062 152.40625 192.621094 151.570312 192.621094 L 123.34375 192.621094 C 122.507812 192.621094 121.679688 192.539062 120.855469 192.375 C 120.035156 192.210938 119.238281 191.96875 118.464844 191.648438 C 117.691406 191.328125 116.957031 190.933594 116.261719 190.46875 C 115.566406 190.003906 114.921875 189.472656 114.332031 188.882812 C 113.738281 188.289062 113.210938 187.644531 112.746094 186.949219 C 112.28125 186.253906 111.886719 185.519531 111.566406 184.746094 C 111.246094 183.972656 111.003906 183.171875 110.839844 182.351562 C 110.675781 181.53125 110.59375 180.703125 110.59375 179.863281 L 110.59375 162.59375 C 110.59375 162.40625 110.628906 162.222656 110.703125 162.050781 C 110.773438 161.875 110.875 161.722656 111.007812 161.589844 C 111.140625 161.457031 111.296875 161.355469 111.46875 161.285156 C 111.640625 161.210938 111.824219 161.175781 112.011719 161.175781 L 152.914062 161.175781 C 148.007812 158.054688 142.675781 156.0625 136.921875 155.207031 C 127.4375 153.613281 114.550781 153.84375 105.582031 158.558594 C 101.695312 167.746094 99.742188 177.328125 99.726562 187.304688 C 99.710938 192.875 100.371094 198.367188 101.71875 203.773438 C 103.070312 204.613281 104.515625 205.238281 106.054688 205.648438 C 111 206.933594 116.210938 205.855469 121.203125 204.785156 Z M 145.054688 199.632812 " fill-opacity="1" fill-rule="nonzero"/><path fill="#6d6e71" d="M 317.363281 236.078125 L 268.769531 220.59375 C 268.582031 220.539062 268.414062 220.445312 268.269531 220.3125 C 264.609375 226.203125 260.160156 231.417969 254.914062 235.953125 C 254.648438 236.1875 254.335938 236.304688 253.980469 236.304688 C 253.550781 236.304688 253.195312 236.140625 252.910156 235.816406 C 252.71875 235.597656 252.605469 235.34375 252.574219 235.050781 C 246.242188 241.453125 238.90625 246.335938 230.554688 249.707031 C 230.589844 250.019531 230.527344 250.308594 230.367188 250.578125 C 230.207031 250.847656 229.980469 251.042969 229.691406 251.160156 C 226.722656 252.371094 223.660156 253.457031 220.507812 254.421875 C 219.328125 255.1875 218.15625 255.90625 216.957031 256.59375 C 216.679688 256.753906 216.398438 256.929688 216.121094 257.109375 L 324.605469 257.109375 C 324.910156 256.664062 325.1875 256.203125 325.4375 255.722656 C 325.691406 255.246094 325.914062 254.757812 326.105469 254.253906 C 326.300781 253.75 326.464844 253.238281 326.597656 252.714844 C 326.734375 252.195312 326.835938 251.664062 326.910156 251.128906 C 326.984375 250.597656 327.023438 250.058594 327.035156 249.519531 C 327.042969 248.980469 327.023438 248.441406 326.96875 247.90625 C 326.917969 247.371094 326.832031 246.835938 326.71875 246.3125 C 326.601562 245.785156 326.457031 245.265625 326.28125 244.753906 C 326.109375 244.246094 325.902344 243.746094 325.667969 243.261719 C 325.4375 242.773438 325.175781 242.304688 324.886719 241.847656 C 324.597656 241.394531 324.285156 240.957031 323.945312 240.535156 C 323.605469 240.117188 323.242188 239.71875 322.859375 239.34375 C 322.472656 238.964844 322.066406 238.613281 321.636719 238.28125 C 321.210938 237.953125 320.765625 237.648438 320.304688 237.371094 C 319.839844 237.09375 319.363281 236.84375 318.875 236.625 C 318.382812 236.402344 317.878906 236.210938 317.363281 236.046875 Z M 317.363281 236.078125 " fill-opacity="1" fill-rule="nonzero"/><path fill="#e6e7e8" d="M 131.449219 135.148438 L 129.558594 146.476562 L 111.6875 146.476562 L 113.679688 135.226562 C 118.988281 135.148438 125.011719 135.132812 131.449219 135.148438 Z M 131.449219 135.148438 " fill-opacity="1" fill-rule="nonzero"/><path fill="#e6e7e8" d="M 234.71875 146.476562 L 216.84375 146.476562 L 215.226562 136.777344 L 215.410156 136.777344 C 215.996094 136.796875 216.574219 136.75 217.152344 136.640625 C 217.726562 136.527344 218.28125 136.359375 218.820312 136.125 C 219.355469 135.894531 219.863281 135.605469 220.335938 135.261719 C 220.808594 134.917969 221.242188 134.527344 221.628906 134.089844 C 222.015625 133.652344 222.355469 133.175781 222.636719 132.664062 C 222.921875 132.152344 223.148438 131.617188 223.3125 131.054688 C 223.480469 130.496094 223.582031 129.921875 223.625 129.339844 C 223.664062 128.753906 223.640625 128.171875 223.554688 127.59375 L 208.769531 26.878906 L 213.613281 26.878906 Z M 234.71875 146.476562 " fill-opacity="1" fill-rule="nonzero"/><path fill="#e6e7e8" d="M 188.480469 146.476562 L 157.246094 146.476562 L 158.105469 135.429688 C 168.269531 135.601562 178.4375 135.820312 187.675781 136.050781 Z M 188.480469 146.476562 " fill-opacity="1" fill-rule="nonzero"/><path fill="#e6e7e8" d="M 131.449219 135.148438 L 129.558594 146.476562 L 111.6875 146.476562 L 113.664062 135.226562 C 118.988281 135.148438 125.011719 135.132812 131.449219 135.148438 Z M 131.449219 135.148438 " fill-opacity="1" fill-rule="nonzero"/><path fill="#58595b" d="M 326.019531 254.421875 C 316.996094 254.023438 308.207031 252.382812 299.648438 249.5 C 293.695312 247.488281 287.746094 244.753906 283.644531 240.003906 C 279.933594 235.710938 278.113281 229.433594 279.988281 224.175781 L 268.738281 220.59375 C 268.550781 220.539062 268.382812 220.445312 268.238281 220.3125 C 264.578125 226.203125 260.128906 231.417969 254.886719 235.953125 C 254.617188 236.1875 254.304688 236.304688 253.953125 236.304688 C 253.519531 236.304688 253.164062 236.140625 252.878906 235.816406 C 252.6875 235.597656 252.574219 235.34375 252.542969 235.050781 C 246.214844 241.453125 238.875 246.335938 230.527344 249.707031 C 230.558594 250.019531 230.496094 250.308594 230.335938 250.578125 C 230.175781 250.847656 229.949219 251.042969 229.660156 251.160156 C 226.691406 252.371094 223.628906 253.457031 220.476562 254.421875 C 219.296875 255.1875 218.128906 255.90625 216.925781 256.59375 C 216.652344 256.753906 216.367188 256.929688 216.09375 257.109375 L 324.605469 257.109375 C 325.175781 256.265625 325.648438 255.367188 326.019531 254.421875 Z M 326.019531 254.421875 " fill-opacity="1" fill-rule="nonzero"/><path fill="#e2c191" d="M 240.246094 179.886719 L 240.246094 164.015625 L 234.046875 164.015625 L 234.046875 180.460938 L 203.128906 185.296875 C 203.128906 185.296875 195.765625 186.707031 192.351562 179.941406 C 192.351562 180.589844 192.417969 181.234375 192.542969 181.871094 C 192.671875 182.507812 192.859375 183.125 193.109375 183.722656 C 193.359375 184.324219 193.664062 184.890625 194.023438 185.429688 C 194.382812 185.972656 194.792969 186.46875 195.253906 186.929688 C 195.710938 187.386719 196.210938 187.796875 196.75 188.160156 C 197.289062 188.519531 197.859375 188.824219 198.457031 189.074219 C 199.058594 189.320312 199.675781 189.507812 200.3125 189.636719 C 200.949219 189.765625 201.589844 189.828125 202.238281 189.828125 L 230.355469 189.828125 C 231.007812 189.828125 231.652344 189.765625 232.292969 189.636719 C 232.929688 189.507812 233.550781 189.316406 234.152344 189.066406 C 234.753906 188.816406 235.324219 188.511719 235.863281 188.148438 C 236.402344 187.785156 236.902344 187.371094 237.363281 186.910156 C 237.824219 186.449219 238.230469 185.945312 238.59375 185.402344 C 238.953125 184.859375 239.257812 184.289062 239.503906 183.6875 C 239.75 183.082031 239.9375 182.460938 240.0625 181.824219 C 240.1875 181.183594 240.246094 180.539062 240.246094 179.886719 Z M 240.246094 179.886719 " fill-opacity="1" fill-rule="nonzero"/><path fill="#e2c191" d="M 102.0625 213.738281 C 101.519531 213.621094 100.96875 213.554688 100.414062 213.539062 C 99.863281 213.859375 99.273438 214.097656 98.652344 214.253906 C 98.03125 214.414062 97.398438 214.480469 96.757812 214.460938 C 96.117188 214.4375 95.492188 214.328125 94.882812 214.132812 C 94.273438 213.9375 93.699219 213.660156 93.167969 213.300781 C 91.0625 211.847656 89.074219 209.476562 89.53125 206.964844 C 88.003906 209.566406 84.335938 210.890625 81.75 209.335938 C 82.578125 210.421875 84.152344 211.273438 84.519531 212.574219 C 84.804688 213.648438 84.824219 214.730469 84.570312 215.8125 C 84.320312 216.898438 83.828125 217.859375 83.097656 218.695312 C 81.644531 220.328125 79.691406 221.628906 77.496094 221.652344 L 76.667969 221.652344 C 79.40625 223.625 79.554688 228.277344 76.945312 230.421875 C 78.03125 232.835938 78.660156 235.363281 78.828125 238.003906 C 79.371094 234.425781 80.574219 231.082031 82.429688 227.972656 C 86.855469 220.65625 95.304688 216.285156 102.136719 213.8125 C 102.113281 213.785156 102.089844 213.761719 102.0625 213.738281 Z M 102.0625 213.738281 " fill-opacity="1" fill-rule="nonzero"/><path fill="#e2c191" d="M 80.902344 257.136719 C 79.210938 252.472656 78.382812 247.660156 78.414062 242.695312 C 78.261719 243.335938 77.972656 243.902344 77.546875 244.402344 C 77.121094 244.902344 76.609375 245.277344 76.003906 245.527344 C 74.082031 246.195312 71.9375 244.761719 71.066406 242.949219 C 70.195312 241.136719 70.300781 238.984375 70.347656 236.949219 C 69.898438 237.417969 69.367188 237.75 68.75 237.945312 C 68.132812 238.136719 67.507812 238.171875 66.871094 238.042969 C 65.613281 237.777344 64.4375 237.308594 63.34375 236.636719 C 61.722656 235.753906 59.371094 235.871094 57.742188 235.011719 C 59.425781 236.796875 61.054688 238.921875 61.078125 241.371094 C 61.101562 243.820312 58.628906 246.324219 56.347656 245.4375 C 55.445312 244.984375 54.699219 244.34375 54.105469 243.523438 C 53.523438 242.695312 52.757812 242.101562 51.8125 241.738281 C 50.855469 241.488281 49.628906 241.992188 49.515625 242.972656 C 50.648438 243.964844 51.34375 245.199219 51.597656 246.683594 C 51.648438 247.042969 51.640625 247.402344 51.570312 247.757812 C 51.503906 248.113281 51.375 248.449219 51.195312 248.765625 C 51.011719 249.078125 50.785156 249.355469 50.511719 249.59375 C 50.234375 249.832031 49.929688 250.015625 49.59375 250.152344 C 48.207031 250.570312 45.765625 249.53125 46.046875 248.113281 C 45.933594 248.660156 45.773438 249.195312 45.570312 249.714844 C 45.363281 250.234375 45.117188 250.730469 44.824219 251.210938 C 44.535156 251.6875 44.207031 252.136719 43.839844 252.554688 C 43.472656 252.976562 43.070312 253.363281 42.636719 253.714844 C 42.203125 254.066406 41.746094 254.382812 41.257812 254.65625 C 40.769531 254.929688 40.265625 255.160156 39.738281 255.347656 C 39.210938 255.535156 38.671875 255.675781 38.121094 255.769531 C 37.570312 255.867188 37.019531 255.914062 36.460938 255.914062 C 35.902344 255.886719 35.347656 255.808594 34.800781 255.6875 C 34.257812 255.5625 33.726562 255.394531 33.207031 255.179688 C 32.691406 254.964844 32.195312 254.710938 31.722656 254.410156 C 31.25 254.113281 30.804688 253.773438 30.390625 253.398438 C 29.976562 253.023438 29.597656 252.617188 29.25 252.175781 C 28.90625 251.738281 28.601562 251.269531 28.335938 250.777344 C 28.070312 250.285156 27.847656 249.773438 27.667969 249.242188 C 27.492188 248.710938 27.359375 248.171875 27.277344 247.617188 L 26.335938 247.671875 C 26.007812 248.867188 25.375 249.875 24.4375 250.6875 C 22.796875 252.09375 20.679688 252.355469 18.65625 252.492188 C 17.089844 252.601562 15.46875 252.714844 14.394531 253.519531 C 13.882812 253.925781 13.613281 254.457031 13.578125 255.109375 C 13.539062 255.398438 13.625 255.640625 13.835938 255.835938 C 14.238281 256.183594 14.394531 256.617188 14.3125 257.136719 Z M 80.902344 257.136719 " fill-opacity="1" fill-rule="nonzero"/><path fill="#e2c191" d="M 322.125 234.890625 C 322.429688 235.460938 322.792969 235.992188 323.210938 236.484375 C 323.628906 236.976562 324.097656 237.421875 324.609375 237.8125 C 325.125 238.207031 325.675781 238.542969 326.257812 238.816406 C 326.84375 239.089844 327.453125 239.300781 328.082031 239.445312 C 328.714844 239.589844 329.351562 239.667969 330 239.675781 C 330.644531 239.683594 331.285156 239.625 331.921875 239.496094 C 332.554688 239.367188 333.167969 239.171875 333.757812 238.910156 C 334.351562 238.652344 334.910156 238.332031 335.433594 237.953125 C 335.441406 238.496094 335.507812 239.035156 335.632812 239.566406 C 335.761719 240.097656 335.945312 240.609375 336.1875 241.097656 C 336.429688 241.589844 336.722656 242.046875 337.066406 242.46875 C 337.410156 242.894531 337.796875 243.277344 338.226562 243.613281 C 338.65625 243.949219 339.117188 244.238281 339.609375 244.472656 C 340.105469 244.707031 340.617188 244.882812 341.152344 245 C 341.683594 245.121094 342.222656 245.179688 342.769531 245.179688 C 343.316406 245.175781 343.855469 245.113281 344.386719 244.992188 C 347.511719 244.28125 350.378906 246.621094 352.730469 248.78125 C 353.910156 249.882812 354.835938 251.171875 355.5 252.648438 C 356.160156 254.121094 356.515625 255.667969 356.554688 257.285156 C 346.691406 259.058594 336.839844 258.984375 327 257.0625 C 328.53125 253.234375 329.886719 248.894531 328.371094 245.085938 C 327.597656 243.390625 326.578125 241.859375 325.308594 240.492188 C 323.945312 238.921875 323.457031 236.46875 322.125 234.890625 Z M 322.125 234.890625 " fill-opacity="1" fill-rule="nonzero"/><path fill="#58595b" d="M 154.460938 250.585938 C 155.316406 250.425781 156.148438 250.183594 156.957031 249.863281 C 157.765625 249.542969 158.539062 249.148438 159.273438 248.679688 C 160.007812 248.214844 160.691406 247.683594 161.324219 247.085938 C 161.957031 246.488281 162.53125 245.839844 163.039062 245.132812 C 163.550781 244.429688 163.992188 243.683594 164.359375 242.894531 C 164.726562 242.105469 165.019531 241.289062 165.234375 240.445312 C 165.449219 239.601562 165.582031 238.746094 165.632812 237.878906 C 165.683594 237.007812 165.65625 236.144531 165.542969 235.28125 C 166.308594 247.265625 118.492188 251.230469 118.492188 251.230469 L 82.179688 251.230469 C 82.578125 253.152344 83.128906 255.027344 83.832031 256.863281 C 83.871094 256.953125 83.902344 257.046875 83.921875 257.144531 L 119.289062 257.144531 Z M 154.460938 250.585938 " fill-opacity="1" fill-rule="nonzero"/><path fill="#939598" d="M 106.539062 222.308594 C 105.347656 220.417969 104.261719 218.464844 103.285156 216.453125 C 96.863281 218.75 88.867188 222.804688 84.820312 229.464844 C 81.128906 235.585938 80.902344 242.476562 81.582031 247.777344 C 81.582031 247.777344 87.605469 223.152344 106.539062 222.308594 Z M 106.539062 222.308594 " fill-opacity="1" fill-rule="nonzero"/><path fill="#a97c50" d="M 3.789062 269.484375 L 371.210938 269.484375 L 371.210938 273.898438 L 3.789062 273.898438 Z M 3.789062 269.484375 " fill-opacity="1" fill-rule="nonzero"/><path fill="#ffdebd" d="M 371.210938 259.984375 L 3.828125 259.984375 L 3.828125 262.929688 L 371.25 262.929688 Z M 371.210938 259.984375 " fill-opacity="1" fill-rule="nonzero"/><path fill="#232323" d="M 211.5 203.851562 C 210.589844 202.242188 207.734375 203.222656 206.402344 203.628906 C 202.578125 204.875 199.117188 206.785156 196.027344 209.359375 C 194.3125 210.667969 192.832031 212.199219 191.578125 213.953125 C 190.246094 215.714844 189.375 217.679688 188.96875 219.851562 C 188.921875 220.234375 189.4375 220.257812 189.613281 220.019531 C 190.875 218.351562 192.332031 216.871094 193.972656 215.574219 C 195.503906 214.371094 196.898438 213.078125 198.46875 211.96875 C 201.652344 209.855469 205.023438 208.085938 208.578125 206.667969 C 209.695312 206.167969 212.570312 205.734375 211.5 203.851562 Z M 211.5 203.851562 " fill-opacity="1" fill-rule="nonzero"/><path fill="#00aeef" d="M 197.320312 167.835938 L 235.269531 167.835938 L 235.269531 171.125 C 235.269531 172.101562 235.175781 173.066406 234.984375 174.023438 C 234.792969 174.976562 234.511719 175.90625 234.136719 176.808594 C 233.761719 177.707031 233.304688 178.5625 232.761719 179.375 C 232.21875 180.183594 231.601562 180.933594 230.914062 181.621094 C 230.222656 182.308594 229.472656 182.925781 228.660156 183.464844 C 227.851562 184.007812 226.992188 184.460938 226.09375 184.835938 C 225.191406 185.207031 224.261719 185.488281 223.304688 185.675781 C 222.347656 185.863281 221.382812 185.957031 220.40625 185.957031 L 212.15625 185.957031 C 211.183594 185.957031 210.21875 185.863281 209.261719 185.671875 C 208.308594 185.480469 207.378906 185.199219 206.480469 184.828125 C 205.578125 184.453125 204.722656 183.996094 203.914062 183.457031 C 203.105469 182.914062 202.355469 182.300781 201.664062 181.609375 C 200.976562 180.921875 200.359375 180.171875 199.820312 179.363281 C 199.277344 178.550781 198.820312 177.695312 198.449219 176.796875 C 198.074219 175.894531 197.792969 174.96875 197.605469 174.011719 C 197.414062 173.058594 197.320312 172.09375 197.320312 171.117188 L 197.320312 167.828125 Z M 197.320312 167.835938 " fill-opacity="1" fill-rule="nonzero"/><path fill="#ed1c24" d="M 118.492188 167.835938 L 156.445312 167.835938 L 156.445312 171.125 C 156.445312 172.101562 156.347656 173.066406 156.15625 174.023438 C 155.964844 174.976562 155.683594 175.90625 155.308594 176.808594 C 154.9375 177.707031 154.476562 178.5625 153.9375 179.375 C 153.394531 180.183594 152.777344 180.933594 152.085938 181.621094 C 151.398438 182.308594 150.644531 182.925781 149.835938 183.464844 C 149.023438 184.007812 148.167969 184.460938 147.265625 184.835938 C 146.363281 185.207031 145.433594 185.488281 144.480469 185.675781 C 143.523438 185.863281 142.558594 185.957031 141.582031 185.957031 L 133.332031 185.957031 C 132.355469 185.957031 131.390625 185.863281 130.4375 185.671875 C 129.480469 185.480469 128.554688 185.199219 127.652344 184.828125 C 126.753906 184.453125 125.898438 183.996094 125.085938 183.457031 C 124.277344 182.914062 123.527344 182.300781 122.839844 181.609375 C 122.148438 180.921875 121.535156 180.171875 120.992188 179.363281 C 120.453125 178.550781 119.996094 177.695312 119.621094 176.796875 C 119.25 175.894531 118.96875 174.96875 118.777344 174.011719 C 118.585938 173.058594 118.492188 172.09375 118.492188 171.117188 L 118.492188 167.828125 Z M 118.492188 167.835938 " fill-opacity="1" fill-rule="nonzero"/><path fill="#232323" d="M 123.34375 193.5625 L 151.597656 193.5625 C 152.5 193.5625 153.390625 193.476562 154.273438 193.300781 C 155.152344 193.125 156.011719 192.863281 156.84375 192.519531 C 157.671875 192.175781 158.460938 191.753906 159.210938 191.253906 C 159.957031 190.753906 160.648438 190.1875 161.285156 189.550781 C 161.921875 188.914062 162.492188 188.222656 162.992188 187.472656 C 163.492188 186.726562 163.914062 185.9375 164.257812 185.105469 C 164.601562 184.277344 164.863281 183.417969 165.039062 182.539062 C 165.214844 181.65625 165.304688 180.765625 165.304688 179.863281 L 165.304688 175.480469 L 188.570312 175.480469 L 188.570312 179.886719 C 188.574219 180.785156 188.660156 181.675781 188.835938 182.554688 C 189.011719 183.433594 189.273438 184.289062 189.617188 185.121094 C 189.960938 185.949219 190.382812 186.734375 190.882812 187.480469 C 191.378906 188.230469 191.945312 188.917969 192.582031 189.554688 C 193.214844 190.1875 193.90625 190.753906 194.652344 191.253906 C 195.398438 191.753906 196.1875 192.175781 197.015625 192.519531 C 197.84375 192.863281 198.699219 193.121094 199.582031 193.296875 C 200.460938 193.476562 201.351562 193.5625 202.246094 193.5625 L 230.355469 193.5625 C 231.253906 193.5625 232.144531 193.476562 233.023438 193.300781 C 233.90625 193.125 234.761719 192.863281 235.589844 192.519531 C 236.421875 192.175781 237.207031 191.757812 237.957031 191.257812 C 238.703125 190.757812 239.394531 190.191406 240.027344 189.558594 C 240.664062 188.921875 241.230469 188.230469 241.730469 187.484375 C 242.230469 186.738281 242.652344 185.949219 242.996094 185.121094 C 243.339844 184.292969 243.597656 183.4375 243.773438 182.554688 C 243.953125 181.675781 244.039062 180.785156 244.039062 179.886719 L 244.039062 162.59375 C 244.039062 162.277344 243.980469 161.976562 243.859375 161.683594 C 243.738281 161.394531 243.566406 161.140625 243.34375 160.917969 C 243.121094 160.695312 242.867188 160.523438 242.574219 160.40625 C 242.285156 160.285156 241.984375 160.226562 241.667969 160.226562 L 112.011719 160.226562 C 111.695312 160.226562 111.394531 160.289062 111.105469 160.40625 C 110.816406 160.527344 110.558594 160.699219 110.339844 160.921875 C 110.117188 161.140625 109.945312 161.398438 109.824219 161.6875 C 109.707031 161.976562 109.644531 162.277344 109.644531 162.59375 L 109.644531 179.863281 C 109.644531 180.765625 109.734375 181.65625 109.910156 182.535156 C 110.085938 183.417969 110.347656 184.273438 110.691406 185.105469 C 111.035156 185.9375 111.460938 186.726562 111.957031 187.472656 C 112.457031 188.21875 113.027344 188.910156 113.664062 189.546875 C 114.296875 190.183594 114.988281 190.75 115.738281 191.25 C 116.484375 191.75 117.273438 192.171875 118.105469 192.515625 C 118.933594 192.863281 119.792969 193.121094 120.671875 193.296875 C 121.554688 193.472656 122.445312 193.5625 123.34375 193.5625 Z M 114.382812 164.964844 L 239.296875 164.964844 L 239.296875 179.886719 C 239.292969 180.476562 239.238281 181.054688 239.121094 181.628906 C 239.007812 182.207031 238.835938 182.765625 238.613281 183.304688 C 238.386719 183.847656 238.109375 184.363281 237.785156 184.851562 C 237.457031 185.339844 237.089844 185.789062 236.671875 186.203125 C 236.257812 186.617188 235.808594 186.988281 235.320312 187.316406 C 234.832031 187.640625 234.316406 187.917969 233.777344 188.140625 C 233.234375 188.367188 232.675781 188.539062 232.101562 188.652344 C 231.523438 188.769531 230.945312 188.824219 230.355469 188.828125 L 202.238281 188.828125 C 201.652344 188.828125 201.070312 188.769531 200.496094 188.652344 C 199.921875 188.539062 199.363281 188.371094 198.820312 188.144531 C 198.277344 187.917969 197.761719 187.644531 197.277344 187.316406 C 196.789062 186.992188 196.335938 186.621094 195.921875 186.207031 C 195.507812 185.792969 195.136719 185.339844 194.808594 184.851562 C 194.484375 184.363281 194.207031 183.851562 193.984375 183.308594 C 193.757812 182.765625 193.589844 182.207031 193.472656 181.632812 C 193.359375 181.054688 193.300781 180.476562 193.300781 179.886719 L 193.300781 173.109375 C 193.300781 172.792969 193.242188 172.492188 193.121094 172.199219 C 193 171.910156 192.828125 171.65625 192.605469 171.433594 C 192.382812 171.210938 192.125 171.039062 191.835938 170.921875 C 191.546875 170.800781 191.242188 170.742188 190.929688 170.742188 C 190.738281 170.746094 190.554688 170.769531 190.371094 170.820312 C 190.183594 170.769531 189.996094 170.746094 189.804688 170.742188 L 163.570312 170.742188 C 163.460938 170.734375 163.355469 170.734375 163.246094 170.742188 C 163.140625 170.734375 163.03125 170.734375 162.925781 170.742188 C 162.613281 170.742188 162.3125 170.800781 162.019531 170.921875 C 161.730469 171.042969 161.476562 171.214844 161.253906 171.433594 C 161.03125 171.65625 160.859375 171.914062 160.742188 172.203125 C 160.621094 172.492188 160.5625 172.792969 160.5625 173.109375 L 160.5625 179.863281 C 160.5625 180.453125 160.503906 181.035156 160.386719 181.613281 C 160.273438 182.191406 160.101562 182.75 159.878906 183.292969 C 159.652344 183.835938 159.375 184.351562 159.046875 184.84375 C 158.722656 185.332031 158.351562 185.785156 157.933594 186.199219 C 157.519531 186.617188 157.066406 186.988281 156.578125 187.3125 C 156.085938 187.640625 155.570312 187.917969 155.027344 188.144531 C 154.484375 188.367188 153.925781 188.539062 153.347656 188.652344 C 152.769531 188.769531 152.1875 188.828125 151.597656 188.828125 L 123.34375 188.828125 C 122.757812 188.828125 122.171875 188.769531 121.597656 188.652344 C 121.019531 188.539062 120.460938 188.367188 119.917969 188.144531 C 119.371094 187.917969 118.855469 187.640625 118.367188 187.3125 C 117.878906 186.988281 117.425781 186.617188 117.007812 186.199219 C 116.59375 185.785156 116.222656 185.332031 115.894531 184.84375 C 115.566406 184.351562 115.292969 183.835938 115.066406 183.292969 C 114.839844 182.75 114.671875 182.191406 114.554688 181.613281 C 114.441406 181.035156 114.382812 180.453125 114.382812 179.863281 Z M 114.382812 164.964844 " fill-opacity="1" fill-rule="nonzero"/><g clip-path="url(#id5)"><path fill="#232323" d="M 372.636719 256.195312 L 358.636719 256.195312 C 358.664062 255.445312 358.621094 254.699219 358.507812 253.957031 C 358.398438 253.210938 358.21875 252.484375 357.976562 251.773438 C 357.730469 251.0625 357.425781 250.382812 357.054688 249.726562 C 356.6875 249.070312 356.261719 248.457031 355.777344 247.878906 C 355.296875 247.304688 354.765625 246.773438 354.1875 246.296875 C 353.609375 245.816406 352.992188 245.394531 352.335938 245.027344 C 351.679688 244.660156 350.996094 244.355469 350.28125 244.117188 C 349.570312 243.875 348.84375 243.699219 348.097656 243.59375 C 347.570312 243.53125 347.042969 243.507812 346.507812 243.484375 C 345.925781 243.480469 345.351562 243.429688 344.777344 243.332031 C 344.390625 243.285156 344.070312 243.121094 343.804688 242.835938 C 343.855469 242.300781 343.996094 241.789062 344.226562 241.304688 C 344.550781 240.527344 344.78125 239.722656 344.921875 238.894531 C 345.519531 234.59375 341.710938 231.070312 337.78125 230.476562 C 335.277344 230.140625 332.792969 230.269531 330.335938 230.871094 C 329.984375 229.851562 329.492188 228.90625 328.855469 228.035156 C 328.222656 227.160156 327.472656 226.402344 326.609375 225.753906 C 325.746094 225.105469 324.808594 224.597656 323.792969 224.230469 C 322.777344 223.867188 321.730469 223.65625 320.652344 223.601562 C 319.574219 223.550781 318.511719 223.65625 317.46875 223.921875 C 316.421875 224.183594 315.4375 224.597656 314.515625 225.15625 C 313.589844 225.71875 312.769531 226.402344 312.054688 227.207031 C 311.335938 228.011719 310.75 228.90625 310.300781 229.886719 L 271.070312 217.359375 C 273.519531 212.730469 275.367188 207.871094 276.613281 202.785156 C 277.855469 197.699219 278.460938 192.539062 278.425781 187.304688 C 278.40625 180.207031 277.441406 173.238281 275.53125 166.402344 C 273.621094 159.570312 270.832031 153.113281 267.167969 147.035156 L 245.664062 25.011719 C 245.644531 24.921875 245.621094 24.832031 245.59375 24.746094 C 245.59375 24.683594 245.554688 24.613281 245.53125 24.554688 C 245.511719 24.492188 245.464844 24.417969 245.425781 24.347656 C 245.386719 24.277344 245.355469 24.210938 245.320312 24.148438 C 245.28125 24.09375 245.242188 24.042969 245.195312 23.996094 C 245.144531 23.921875 245.089844 23.855469 245.027344 23.789062 L 244.882812 23.667969 C 244.8125 23.613281 244.753906 23.550781 244.683594 23.503906 C 244.625 23.464844 244.558594 23.429688 244.492188 23.398438 C 244.425781 23.355469 244.355469 23.316406 244.285156 23.285156 C 244.21875 23.285156 244.148438 23.238281 244.078125 23.214844 L 243.847656 23.136719 C 243.78125 23.132812 243.710938 23.132812 243.644531 23.136719 L 243.367188 23.054688 L 131.632812 23.054688 C 131.355469 23.058594 131.089844 23.109375 130.832031 23.207031 C 130.574219 23.300781 130.339844 23.441406 130.132812 23.621094 C 129.921875 23.796875 129.75 24.007812 129.613281 24.246094 C 129.476562 24.484375 129.382812 24.742188 129.335938 25.011719 L 107.90625 145.945312 C 107.765625 146.085938 107.640625 146.238281 107.53125 146.40625 C 103.75 152.558594 100.871094 159.105469 98.898438 166.050781 C 96.925781 173 95.929688 180.082031 95.914062 187.304688 C 95.914062 190.355469 96.101562 193.390625 96.472656 196.417969 C 94.125 194.996094 90.917969 193.71875 87.695312 195.011719 C 84.269531 196.378906 82.828125 199.824219 81.671875 202.59375 L 81.535156 202.929688 C 80.902344 204.460938 79.585938 207.003906 77.886719 207.085938 C 76.953125 207.15625 75.78125 206.4375 74.554688 205.695312 C 72.71875 204.585938 70.429688 203.207031 67.667969 203.828125 C 64.8125 204.46875 62.648438 207.261719 62.402344 210.613281 C 62.363281 212.882812 62.757812 215.074219 63.582031 217.1875 L 63.695312 217.546875 C 64.25 218.988281 64.507812 220.480469 64.460938 222.027344 C 63.285156 222.125 62.140625 221.984375 61.027344 221.597656 C 60.644531 221.46875 60.261719 221.320312 59.871094 221.175781 C 58.039062 220.496094 55.761719 219.644531 53.335938 220.3125 C 50.21875 221.167969 47.976562 224.351562 47.9375 228.054688 C 47.933594 229.390625 48.128906 230.691406 48.519531 231.96875 C 48.34375 231.832031 48.171875 231.691406 48.007812 231.539062 C 46.578125 230.246094 43.605469 227.542969 40.140625 228.714844 C 38.691406 229.308594 37.515625 230.25 36.613281 231.53125 C 36.144531 232.082031 35.570312 232.769531 35.25 232.824219 C 34.929688 232.878906 34.03125 232.136719 33.351562 231.53125 C 32.226562 230.519531 30.828125 229.234375 28.90625 228.953125 C 28.125 228.832031 27.351562 228.871094 26.589844 229.070312 C 25.824219 229.273438 25.132812 229.617188 24.511719 230.109375 C 23.671875 230.773438 22.996094 231.574219 22.476562 232.515625 C 21.957031 233.453125 21.640625 234.453125 21.519531 235.519531 C 21.398438 237.53125 21.625 239.503906 22.203125 241.433594 C 22.355469 242.0625 22.507812 242.6875 22.621094 243.316406 C 23.011719 245.398438 22.730469 247.074219 21.855469 247.816406 C 20.984375 248.558594 19.675781 248.582031 18.277344 248.710938 C 16.363281 248.84375 13.972656 249.011719 12 250.488281 C 11.304688 251.03125 10.753906 251.699219 10.351562 252.488281 C 9.953125 253.273438 9.734375 254.109375 9.703125 254.996094 C 9.6875 255.398438 9.722656 255.800781 9.8125 256.195312 L 2.363281 256.195312 C 2.050781 256.195312 1.75 256.257812 1.460938 256.375 C 1.171875 256.496094 0.914062 256.667969 0.691406 256.890625 C 0.472656 257.109375 0.300781 257.367188 0.179688 257.65625 C 0.0585938 257.945312 0 258.246094 0 258.5625 L 0 275.320312 C 0 275.636719 0.0585938 275.9375 0.179688 276.226562 C 0.300781 276.515625 0.472656 276.773438 0.691406 276.992188 C 0.914062 277.214844 1.171875 277.386719 1.460938 277.507812 C 1.75 277.625 2.050781 277.6875 2.363281 277.6875 L 372.636719 277.6875 C 372.949219 277.6875 373.25 277.625 373.539062 277.507812 C 373.828125 277.386719 374.085938 277.214844 374.308594 276.992188 C 374.527344 276.773438 374.699219 276.515625 374.820312 276.226562 C 374.941406 275.9375 375 275.636719 375 275.320312 L 375 258.5625 C 375 258.246094 374.941406 257.945312 374.820312 257.65625 C 374.699219 257.367188 374.527344 257.109375 374.308594 256.890625 C 374.085938 256.667969 373.828125 256.496094 373.539062 256.375 C 373.25 256.257812 372.949219 256.195312 372.636719 256.195312 Z M 320.929688 228.339844 C 321.621094 228.453125 322.277344 228.675781 322.894531 229.007812 C 323.515625 229.335938 324.0625 229.757812 324.542969 230.269531 C 325.019531 230.78125 325.40625 231.359375 325.691406 231.996094 C 325.980469 232.636719 326.160156 233.304688 326.226562 234.003906 C 326.238281 234.1875 326.273438 234.371094 326.328125 234.546875 C 326.382812 234.726562 326.457031 234.894531 326.550781 235.054688 C 326.644531 235.214844 326.757812 235.363281 326.886719 235.496094 C 327.015625 235.628906 327.160156 235.746094 327.316406 235.847656 C 327.472656 235.945312 327.640625 236.027344 327.816406 236.085938 C 327.992188 236.148438 328.171875 236.1875 328.359375 236.207031 C 328.542969 236.222656 328.726562 236.21875 328.914062 236.195312 C 329.097656 236.167969 329.277344 236.121094 329.449219 236.054688 C 331.910156 235.109375 334.449219 234.796875 337.0625 235.121094 C 338.664062 235.363281 340.421875 236.796875 340.230469 238.179688 C 340.132812 238.679688 339.988281 239.164062 339.796875 239.636719 C 339.328125 240.867188 338.695312 242.558594 339.328125 244.402344 C 339.707031 245.355469 340.292969 246.148438 341.089844 246.789062 C 341.886719 247.429688 342.789062 247.828125 343.796875 247.992188 C 344.632812 248.152344 345.472656 248.238281 346.324219 248.246094 C 346.738281 248.246094 347.152344 248.246094 347.5625 248.328125 C 348.019531 248.40625 348.464844 248.523438 348.902344 248.679688 C 349.335938 248.835938 349.753906 249.03125 350.152344 249.265625 C 350.554688 249.5 350.929688 249.769531 351.277344 250.070312 C 351.628906 250.375 351.949219 250.707031 352.238281 251.066406 C 352.527344 251.429688 352.78125 251.8125 353 252.222656 C 353.21875 252.628906 353.402344 253.054688 353.542969 253.496094 C 353.683594 253.9375 353.785156 254.386719 353.84375 254.84375 C 353.902344 255.304688 353.917969 255.765625 353.894531 256.226562 L 329.402344 256.226562 C 329.640625 255.664062 329.847656 255.089844 330.027344 254.503906 C 330.207031 253.917969 330.355469 253.324219 330.472656 252.722656 C 330.585938 252.121094 330.671875 251.515625 330.726562 250.90625 C 330.78125 250.292969 330.804688 249.683594 330.792969 249.070312 C 330.785156 248.457031 330.742188 247.847656 330.667969 247.238281 C 330.597656 246.632812 330.492188 246.03125 330.355469 245.433594 C 330.222656 244.835938 330.054688 244.246094 329.859375 243.667969 C 329.660156 243.085938 329.433594 242.519531 329.179688 241.960938 C 328.921875 241.40625 328.640625 240.863281 328.328125 240.335938 C 328.015625 239.808594 327.675781 239.300781 327.3125 238.808594 C 326.945312 238.316406 326.558594 237.84375 326.144531 237.394531 C 325.730469 236.941406 325.292969 236.511719 324.835938 236.105469 C 324.375 235.703125 323.898438 235.320312 323.398438 234.964844 C 322.902344 234.605469 322.386719 234.277344 321.855469 233.976562 C 321.320312 233.671875 320.773438 233.398438 320.214844 233.152344 C 319.652344 232.90625 319.082031 232.6875 318.496094 232.503906 L 314.871094 231.347656 C 315.183594 230.839844 315.5625 230.382812 316.003906 229.980469 C 316.445312 229.578125 316.933594 229.242188 317.472656 228.976562 C 318.007812 228.710938 318.566406 228.523438 319.15625 228.417969 C 319.746094 228.308594 320.335938 228.28125 320.929688 228.339844 Z M 237.726562 145.503906 L 216.949219 27.792969 L 241.316406 27.792969 L 262.09375 145.503906 Z M 133.59375 27.792969 L 212.144531 27.792969 L 232.921875 145.503906 L 112.8125 145.503906 Z M 110.777344 150.238281 L 263.578125 150.238281 C 266.875 155.859375 269.378906 161.808594 271.09375 168.089844 C 272.808594 174.371094 273.671875 180.769531 273.6875 187.28125 C 273.6875 205.097656 266.335938 220.953125 252.421875 233.078125 C 252.183594 233.285156 251.996094 233.527344 251.859375 233.808594 C 251.71875 234.089844 251.640625 234.386719 251.621094 234.699219 C 251.597656 235.011719 251.640625 235.316406 251.738281 235.613281 C 251.839844 235.910156 251.992188 236.179688 252.199219 236.414062 C 252.40625 236.648438 252.648438 236.835938 252.929688 236.976562 C 253.210938 237.117188 253.507812 237.195312 253.820312 237.21875 C 254.132812 237.238281 254.4375 237.199219 254.734375 237.101562 C 255.03125 237 255.300781 236.847656 255.535156 236.644531 C 260.628906 232.242188 264.992188 227.207031 268.621094 221.535156 L 317.097656 236.980469 C 318.0625 237.28125 318.980469 237.691406 319.847656 238.214844 C 320.71875 238.734375 321.511719 239.347656 322.234375 240.054688 C 322.960938 240.761719 323.589844 241.546875 324.125 242.40625 C 324.664062 243.261719 325.09375 244.171875 325.414062 245.128906 C 325.605469 245.703125 325.757812 246.285156 325.875 246.875 C 325.496094 246.277344 325.074219 245.710938 324.613281 245.175781 C 318.613281 238.1875 307.429688 237.835938 306.957031 237.820312 C 306.644531 237.8125 306.339844 237.863281 306.046875 237.972656 C 305.753906 238.085938 305.496094 238.25 305.265625 238.464844 C 305.039062 238.679688 304.863281 238.929688 304.738281 239.21875 C 304.609375 239.503906 304.542969 239.804688 304.539062 240.117188 C 304.53125 240.429688 304.582031 240.734375 304.695312 241.027344 C 304.804688 241.320312 304.96875 241.578125 305.183594 241.808594 C 305.398438 242.035156 305.648438 242.214844 305.933594 242.34375 C 306.222656 242.472656 306.519531 242.542969 306.835938 242.550781 C 306.925781 242.550781 316.40625 242.878906 321.023438 248.269531 C 321.945312 249.371094 322.621094 250.609375 323.054688 251.980469 C 323.484375 253.355469 323.640625 254.757812 323.519531 256.1875 L 217.953125 256.1875 C 222.0625 255.046875 226.089844 253.671875 230.042969 252.0625 C 230.335938 251.945312 230.59375 251.777344 230.816406 251.558594 C 231.039062 251.335938 231.214844 251.082031 231.335938 250.792969 C 231.457031 250.503906 231.519531 250.199219 231.523438 249.886719 C 231.523438 249.570312 231.46875 249.269531 231.347656 248.976562 C 231.230469 248.6875 231.0625 248.429688 230.839844 248.207031 C 230.617188 247.984375 230.363281 247.808594 230.074219 247.6875 C 229.785156 247.566406 229.480469 247.503906 229.167969 247.503906 C 228.855469 247.5 228.550781 247.558594 228.261719 247.679688 C 214.9375 253.113281 199.539062 256.097656 183.742188 256.1875 L 145.0625 256.1875 L 155.164062 254.304688 C 156.15625 254.113281 157.125 253.839844 158.070312 253.484375 C 159.011719 253.125 159.917969 252.6875 160.789062 252.175781 C 161.65625 251.660156 162.476562 251.078125 163.242188 250.421875 C 164.011719 249.769531 164.71875 249.054688 165.363281 248.277344 C 166.011719 247.5 166.585938 246.675781 167.085938 245.800781 C 167.589844 244.925781 168.015625 244.011719 168.363281 243.066406 C 168.707031 242.117188 168.972656 241.144531 169.152344 240.152344 C 169.332031 239.160156 169.425781 238.15625 169.429688 237.148438 L 170.609375 237.230469 L 184.820312 237.230469 C 190.859375 236.789062 197.105469 236.320312 203.082031 234.253906 C 210.046875 231.84375 215.328125 227.527344 218.050781 222.085938 C 221.363281 215.40625 220.132812 207.261719 215.128906 202.738281 C 210.835938 198.859375 204.878906 198.230469 200.179688 198.148438 C 199.363281 198.148438 198.535156 198.148438 197.71875 198.109375 C 193.8125 198.109375 190.125 198.042969 186.828125 196.761719 C 184.339844 195.796875 181.945312 193.617188 181.15625 191.167969 C 185.425781 190.210938 188.480469 187.71875 188.480469 184.777344 C 188.480469 181.019531 183.480469 177.976562 177.320312 177.976562 C 171.160156 177.976562 166.164062 181.035156 166.164062 184.777344 C 166.164062 187.886719 169.570312 190.503906 174.230469 191.320312 C 173.707031 192.578125 172.957031 193.675781 171.976562 194.621094 C 171 195.566406 169.875 196.28125 168.605469 196.761719 C 165.3125 198.042969 161.625 198.078125 157.722656 198.109375 C 156.894531 198.109375 156.078125 198.109375 155.257812 198.148438 C 150.558594 198.253906 144.605469 198.914062 140.3125 202.738281 C 135.511719 207.078125 134.1875 214.726562 137.003906 221.246094 L 112.570312 224.445312 C 112.570312 224.429688 112.570312 224.417969 112.570312 224.40625 C 104.695312 213.859375 100.699219 201.378906 100.699219 187.296875 C 100.710938 180.785156 101.570312 174.390625 103.28125 168.109375 C 104.988281 161.828125 107.488281 155.878906 110.777344 150.261719 Z M 84.597656 256.195312 C 83.792969 254.113281 79.109375 240.804688 85.644531 229.992188 C 89.386719 223.792969 96.703125 219.929688 102.828125 217.640625 C 104.125 220.246094 105.601562 222.75 107.25 225.148438 L 104.105469 225.5625 C 103.804688 225.617188 103.527344 225.722656 103.269531 225.886719 C 103.011719 226.046875 102.792969 226.25 102.613281 226.496094 C 102.433594 226.742188 102.308594 227.011719 102.230469 227.308594 C 102.15625 227.601562 102.140625 227.898438 102.179688 228.203125 C 102.21875 228.503906 102.3125 228.785156 102.460938 229.050781 C 102.609375 229.316406 102.800781 229.546875 103.035156 229.738281 C 103.273438 229.929688 103.535156 230.070312 103.828125 230.160156 C 104.117188 230.25 104.414062 230.285156 104.71875 230.261719 L 150.277344 224.285156 C 151.820312 224.09375 153.351562 224.1875 154.863281 224.554688 C 156.375 224.925781 157.777344 225.546875 159.0625 226.425781 L 147.054688 228.59375 C 146.765625 228.648438 146.5 228.753906 146.25 228.910156 C 146.003906 229.066406 145.792969 229.261719 145.617188 229.496094 C 145.441406 229.730469 145.3125 229.988281 145.234375 230.269531 C 145.152344 230.550781 145.128906 230.839844 145.152344 231.128906 C 145.179688 231.421875 145.257812 231.699219 145.386719 231.960938 C 145.515625 232.226562 145.6875 232.457031 145.898438 232.65625 C 146.113281 232.855469 146.355469 233.007812 146.628906 233.121094 C 146.898438 233.230469 147.183594 233.285156 147.472656 233.292969 C 147.613281 233.304688 147.753906 233.304688 147.894531 233.292969 L 162.941406 230.574219 C 163.828125 232.082031 164.382812 233.699219 164.601562 235.433594 C 164.648438 235.761719 164.671875 236.101562 164.6875 236.429688 L 150 237.828125 C 149.699219 237.863281 149.417969 237.949219 149.152344 238.09375 C 148.886719 238.234375 148.65625 238.417969 148.460938 238.648438 C 148.265625 238.878906 148.117188 239.132812 148.019531 239.417969 C 147.921875 239.703125 147.882812 239.996094 147.894531 240.296875 C 147.910156 240.597656 147.980469 240.886719 148.101562 241.160156 C 148.226562 241.4375 148.394531 241.679688 148.613281 241.886719 C 148.828125 242.097656 149.074219 242.261719 149.351562 242.375 C 149.632812 242.492188 149.921875 242.554688 150.222656 242.558594 L 150.460938 242.558594 L 164.019531 241.234375 C 163.652344 242.300781 163.152344 243.300781 162.519531 244.234375 C 161.886719 245.167969 161.144531 246.007812 160.292969 246.746094 C 159.441406 247.484375 158.507812 248.097656 157.492188 248.59375 C 156.476562 249.085938 155.417969 249.4375 154.308594 249.652344 L 119.226562 256.1875 Z M 141.628906 219.996094 C 139.277344 215.246094 140.097656 209.34375 143.488281 206.261719 C 146.625 203.421875 151.484375 202.953125 155.371094 202.863281 L 157.761719 202.863281 C 161.921875 202.863281 166.21875 202.785156 170.320312 201.195312 C 171.851562 200.601562 173.25 199.78125 174.515625 198.734375 C 175.78125 197.6875 176.851562 196.464844 177.71875 195.070312 C 178.585938 196.46875 179.65625 197.6875 180.921875 198.734375 C 182.1875 199.785156 183.585938 200.601562 185.121094 201.195312 C 189.214844 202.785156 193.539062 202.824219 197.671875 202.863281 L 200.066406 202.863281 C 203.953125 202.953125 208.8125 203.421875 211.953125 206.261719 C 215.363281 209.320312 216.160156 215.246094 213.8125 219.996094 C 210.925781 225.8125 204.878906 228.628906 201.566406 229.785156 C 196.210938 231.644531 190.300781 232.082031 184.59375 232.511719 L 180.613281 232.511719 C 180.957031 231.949219 181.191406 231.34375 181.320312 230.695312 C 181.449219 230.050781 181.464844 229.402344 181.367188 228.75 C 181.265625 228.097656 181.058594 227.484375 180.742188 226.90625 C 180.425781 226.328125 180.019531 225.820312 179.527344 225.386719 C 178.679688 224.738281 177.746094 224.269531 176.722656 223.976562 C 176.488281 223.894531 176.25 223.816406 176.019531 223.726562 C 175.816406 223.648438 175.628906 223.542969 175.453125 223.410156 C 175.453125 223.296875 175.53125 223.144531 175.570312 223.027344 C 175.675781 222.699219 175.777344 222.371094 175.851562 222.042969 C 176.019531 221.195312 176.007812 220.351562 175.820312 219.511719 C 175.628906 218.671875 175.277344 217.90625 174.765625 217.210938 C 174.105469 216.316406 173.296875 215.582031 172.339844 215.015625 C 171.382812 214.449219 170.351562 214.089844 169.246094 213.945312 C 167.082031 213.703125 164.941406 213.859375 162.835938 214.410156 C 162.585938 213.289062 162.15625 212.242188 161.542969 211.269531 C 160.933594 210.296875 160.171875 209.457031 159.269531 208.746094 C 158.863281 208.457031 158.4375 208.207031 157.988281 207.996094 C 157.539062 207.78125 157.074219 207.609375 156.597656 207.480469 C 156.117188 207.351562 155.628906 207.265625 155.136719 207.21875 C 154.640625 207.175781 154.144531 207.179688 153.652344 207.222656 C 153.15625 207.269531 152.667969 207.355469 152.191406 207.488281 C 151.710938 207.621094 151.246094 207.792969 150.800781 208.007812 C 150.351562 208.222656 149.925781 208.472656 149.523438 208.765625 C 149.121094 209.054688 148.746094 209.378906 148.402344 209.734375 C 146.105469 212.230469 146.417969 216.667969 147.820312 219.835938 L 142.003906 220.601562 C 141.855469 220.394531 141.734375 220.195312 141.628906 219.996094 Z M 153.105469 219.5 C 153.027344 219.351562 152.933594 219.210938 152.824219 219.078125 C 151.46875 217.546875 151.054688 213.835938 151.867188 212.957031 C 152.167969 212.664062 152.511719 212.429688 152.890625 212.257812 C 153.273438 212.082031 153.671875 211.976562 154.089844 211.9375 C 154.507812 211.902344 154.921875 211.933594 155.328125 212.039062 C 155.734375 212.140625 156.109375 212.308594 156.460938 212.542969 C 157.988281 213.675781 158.480469 216.011719 158.640625 217.777344 C 158.65625 217.964844 158.695312 218.144531 158.757812 218.324219 C 158.816406 218.5 158.898438 218.667969 158.996094 218.824219 C 159.097656 218.984375 159.214844 219.128906 159.347656 219.257812 C 159.484375 219.390625 159.628906 219.5 159.789062 219.597656 C 159.953125 219.691406 160.121094 219.769531 160.300781 219.824219 C 160.480469 219.878906 160.660156 219.914062 160.847656 219.925781 C 161.035156 219.9375 161.21875 219.925781 161.40625 219.894531 C 161.589844 219.863281 161.765625 219.8125 161.9375 219.738281 C 164.078125 218.777344 166.3125 218.417969 168.644531 218.660156 C 169.570312 218.792969 170.3125 219.234375 170.878906 219.984375 C 171.144531 220.296875 171.246094 220.660156 171.183594 221.070312 C 171.144531 221.242188 171.097656 221.410156 171.039062 221.574219 C 170.726562 222.371094 170.601562 223.199219 170.671875 224.054688 C 170.878906 225.828125 172.203125 227.3125 174.238281 228.140625 C 174.542969 228.261719 174.847656 228.371094 175.164062 228.476562 C 175.625 228.597656 176.054688 228.78125 176.457031 229.035156 C 176.566406 229.171875 176.621094 229.328125 176.625 229.5 C 176.628906 229.675781 176.574219 229.832031 176.472656 229.972656 C 176.367188 230.113281 176.230469 230.207031 176.0625 230.25 C 175.894531 230.296875 175.730469 230.289062 175.570312 230.222656 C 174.992188 229.855469 174.363281 229.625 173.683594 229.527344 C 173.007812 229.433594 172.339844 229.480469 171.679688 229.671875 C 170.507812 229.972656 169.417969 230.46875 168.421875 231.15625 C 167.851562 229.554688 167.066406 228.070312 166.0625 226.703125 C 165.960938 226.542969 165.84375 226.394531 165.710938 226.257812 C 164.953125 225.285156 164.101562 224.398438 163.15625 223.601562 C 162.210938 222.808594 161.195312 222.117188 160.105469 221.535156 C 159.015625 220.953125 157.875 220.492188 156.6875 220.148438 C 155.503906 219.804688 154.292969 219.589844 153.0625 219.5 Z M 14.488281 255.179688 C 14.507812 254.816406 14.652344 254.511719 14.929688 254.277344 C 15.78125 253.640625 17.226562 253.511719 18.6875 253.433594 C 20.777344 253.289062 23.164062 253.003906 25.027344 251.40625 C 27.246094 249.5 28.085938 246.316406 27.320312 242.453125 C 27.183594 241.738281 27.015625 241.035156 26.847656 240.324219 C 26.414062 238.921875 26.21875 237.484375 26.265625 236.015625 C 26.363281 235.152344 26.746094 234.441406 27.414062 233.878906 C 27.628906 233.671875 27.882812 233.585938 28.179688 233.628906 C 28.980469 233.941406 29.675781 234.414062 30.261719 235.042969 C 31.621094 236.261719 33.472656 237.921875 36.097656 237.484375 C 38.15625 237.140625 39.40625 235.640625 40.316406 234.546875 C 40.691406 233.996094 41.160156 233.546875 41.722656 233.191406 C 42.558594 232.902344 44.3125 234.5 44.886719 235.027344 C 47.019531 236.972656 50.355469 238.496094 53.304688 236.957031 C 53.570312 236.820312 53.804688 236.636719 54.003906 236.410156 C 54.203125 236.179688 54.351562 235.925781 54.453125 235.640625 C 54.554688 235.355469 54.597656 235.0625 54.589844 234.761719 C 54.578125 234.460938 54.511719 234.171875 54.390625 233.894531 C 53.546875 231.984375 52.683594 230 52.722656 228.109375 C 52.722656 226.761719 53.488281 225.179688 54.636719 224.859375 C 55.585938 224.597656 56.886719 225.078125 58.261719 225.621094 C 58.707031 225.792969 59.144531 225.953125 59.578125 226.097656 C 60.34375 226.359375 64.46875 227.628906 67.132812 226.058594 C 67.636719 225.777344 68.058594 225.402344 68.402344 224.933594 C 68.742188 224.464844 68.96875 223.949219 69.085938 223.378906 C 69.613281 220.785156 68.921875 218.269531 68.226562 216.109375 L 68.113281 215.742188 C 67.496094 214.210938 67.175781 212.617188 67.15625 210.96875 C 67.238281 209.757812 67.921875 208.625 68.730469 208.449219 C 69.542969 208.273438 70.769531 208.945312 72.105469 209.757812 C 73.804688 210.785156 75.734375 211.945312 78.121094 211.824219 C 80.371094 211.71875 83.546875 210.402344 85.90625 204.769531 L 86.050781 204.421875 C 86.945312 202.273438 87.871094 200.046875 89.457031 199.410156 C 91.40625 198.644531 94.09375 200.398438 96.222656 202.027344 C 96.601562 202.316406 97.027344 202.476562 97.5 202.511719 C 98.289062 206.214844 99.402344 209.824219 100.828125 213.332031 C 94.03125 215.910156 85.9375 220.328125 81.574219 227.550781 C 74.90625 238.5625 77.929688 251.238281 79.546875 256.203125 L 15.121094 256.203125 C 15 255.804688 14.789062 255.464844 14.488281 255.179688 Z M 370.261719 272.949219 L 4.738281 272.949219 L 4.738281 260.933594 L 370.261719 260.933594 Z M 370.261719 272.949219 " fill-opacity="1" fill-rule="nonzero"/></g><path fill="#232323" d="M 71.625 242.292969 C 71.34375 242.429688 71.101562 242.617188 70.894531 242.855469 C 70.6875 243.089844 70.535156 243.355469 70.433594 243.652344 C 70.332031 243.949219 70.292969 244.253906 70.3125 244.570312 C 70.335938 244.882812 70.414062 245.179688 70.554688 245.460938 C 70.636719 245.625 70.648438 245.796875 70.59375 245.972656 C 70.539062 246.152344 70.429688 246.285156 70.265625 246.371094 C 70.105469 246.460938 69.933594 246.480469 69.753906 246.429688 C 69.574219 246.382812 69.4375 246.277344 69.34375 246.117188 C 69.195312 245.871094 69.003906 245.65625 68.777344 245.480469 C 68.546875 245.300781 68.296875 245.167969 68.019531 245.082031 C 67.742188 244.996094 67.460938 244.960938 67.171875 244.980469 C 66.882812 245 66.605469 245.066406 66.339844 245.1875 C 66.078125 245.304688 65.84375 245.46875 65.636719 245.671875 C 65.433594 245.875 65.269531 246.109375 65.152344 246.375 C 65.035156 246.640625 64.964844 246.917969 64.949219 247.207031 C 64.929688 247.496094 64.964844 247.777344 65.050781 248.054688 C 65.023438 248.390625 64.855469 248.625 64.546875 248.757812 C 64.222656 248.832031 63.902344 248.820312 63.585938 248.726562 C 63.269531 248.632812 62.992188 248.464844 62.761719 248.230469 C 62.0625 247.480469 61.675781 246.589844 61.597656 245.566406 C 61.5625 245.253906 61.464844 244.960938 61.3125 244.6875 C 61.15625 244.414062 60.957031 244.179688 60.710938 243.988281 C 60.460938 243.792969 60.1875 243.652344 59.882812 243.570312 C 59.582031 243.484375 59.273438 243.460938 58.960938 243.5 C 58.652344 243.539062 58.359375 243.636719 58.085938 243.789062 C 57.8125 243.945312 57.578125 244.144531 57.382812 244.394531 C 57.191406 244.640625 57.050781 244.914062 56.96875 245.21875 C 56.882812 245.523438 56.863281 245.828125 56.902344 246.140625 C 57 247.183594 57.277344 248.179688 57.722656 249.128906 C 58.167969 250.078125 58.761719 250.921875 59.503906 251.667969 C 60.125 252.265625 60.839844 252.730469 61.640625 253.058594 C 62.441406 253.386719 63.273438 253.554688 64.140625 253.5625 C 64.847656 253.566406 65.53125 253.441406 66.191406 253.195312 C 67.324219 252.773438 68.21875 252.058594 68.878906 251.046875 C 70.144531 251.3125 71.351562 251.140625 72.496094 250.535156 C 72.796875 250.363281 73.082031 250.167969 73.347656 249.945312 C 73.609375 249.722656 73.851562 249.476562 74.070312 249.207031 C 74.289062 248.9375 74.480469 248.652344 74.644531 248.347656 C 74.808594 248.042969 74.945312 247.726562 75.050781 247.398438 C 75.15625 247.070312 75.230469 246.730469 75.273438 246.390625 C 75.316406 246.046875 75.324219 245.699219 75.304688 245.355469 C 75.28125 245.011719 75.226562 244.671875 75.140625 244.335938 C 75.054688 244 74.941406 243.675781 74.792969 243.363281 C 74.652344 243.082031 74.464844 242.839844 74.230469 242.632812 C 73.992188 242.425781 73.726562 242.273438 73.429688 242.171875 C 73.132812 242.074219 72.828125 242.03125 72.515625 242.054688 C 72.203125 242.074219 71.90625 242.152344 71.625 242.292969 Z M 71.625 242.292969 " fill-opacity="1" fill-rule="nonzero"/><path fill="#ffffff" d="M 221.25 167.835938 L 214.867188 167.835938 L 208.140625 185.957031 L 214.53125 185.957031 Z M 221.25 167.835938 " fill-opacity="0.498" fill-rule="nonzero"/><path fill="#ffffff" d="M 235.269531 167.835938 L 223.332031 167.835938 L 216.582031 185.957031 L 227.457031 185.957031 C 227.96875 185.957031 228.472656 185.90625 228.976562 185.808594 C 229.476562 185.707031 229.964844 185.558594 230.433594 185.363281 C 230.90625 185.167969 231.355469 184.929688 231.78125 184.644531 C 232.207031 184.359375 232.597656 184.039062 232.960938 183.675781 C 233.320312 183.316406 233.644531 182.921875 233.929688 182.496094 C 234.210938 182.074219 234.453125 181.625 234.648438 181.152344 C 234.84375 180.679688 234.992188 180.195312 235.089844 179.691406 C 235.191406 179.191406 235.238281 178.683594 235.238281 178.171875 Z M 235.269531 167.835938 " fill-opacity="0.498" fill-rule="nonzero"/><path fill="#ffffff" d="M 142.421875 167.835938 L 136.03125 167.835938 L 129.3125 185.957031 L 135.703125 185.957031 Z M 142.421875 167.835938 " fill-opacity="0.498" fill-rule="nonzero"/><path fill="#ffffff" d="M 156.445312 167.835938 L 144.503906 167.835938 L 137.753906 185.957031 L 148.628906 185.957031 C 149.140625 185.957031 149.648438 185.90625 150.148438 185.808594 C 150.648438 185.707031 151.136719 185.558594 151.609375 185.363281 C 152.082031 185.167969 152.527344 184.929688 152.953125 184.644531 C 153.378906 184.359375 153.773438 184.039062 154.132812 183.675781 C 154.496094 183.316406 154.816406 182.921875 155.101562 182.496094 C 155.386719 182.074219 155.625 181.625 155.820312 181.152344 C 156.015625 180.679688 156.164062 180.195312 156.265625 179.691406 C 156.363281 179.191406 156.414062 178.683594 156.414062 178.171875 Z M 156.445312 167.835938 " fill-opacity="0.498" fill-rule="nonzero"/></svg>