<?xml version="1.0" encoding="UTF-8" standalone="no" ?>
<svg xmlns="http://www.w3.org/2000/svg" xmlns:xlink="http://www.w3.org/1999/xlink" version="1.1" width="300" height="450" viewBox="0 0 300 450" xml:space="preserve">
    <g transform="matrix(1 0 0 1 150 225)" id="background"  >
        <path fill="var(--c-background, white)" vector-effect="non-scaling-stroke"  transform=" translate(-150, -225)" d="M 0 0 L 300 0 L 300 450 L 0 450 z" stroke-linecap="round" />
    </g>
    <g transform="matrix(1,0,0,1,150,261)">
        <g transform="matrix(1,0,0,1,-150,-189)" id="image-icon">
            <path fill="var(--c-image-icon, black)" vector-effect="non-scaling-stroke" d="M150,195.652C203.801,195.652 247.406,151.852 247.406,97.824C247.406,43.801 203.801,0 150,0C96.199,0 52.594,43.801 52.594,97.824C52.594,151.852 96.199,195.652 150,195.652ZM188.582,232.336L111.418,232.336C38.602,232.336 -20.457,291.641 -20.457,364.781C-20.457,379.41 -8.648,391.277 5.918,391.277L294.098,391.277C308.664,391.301 320.457,379.457 320.457,364.781C320.457,291.641 261.406,232.336 188.582,232.336Z" style="fill-rule:nonzero;"/>
        </g>
    </g>
</svg>