<?xml version="1.0" encoding="UTF-8" standalone="no" ?>
<svg xmlns="http://www.w3.org/2000/svg" xmlns:xlink="http://www.w3.org/1999/xlink" version="1.1" width="300" height="450" viewBox="0 0 300 450" xml:space="preserve">
    <g transform="matrix(1 0 0 1 150 225)" id="background"  >
        <path fill="var(--c-background, white)" vector-effect="non-scaling-stroke"  transform=" translate(-150, -225)" d="M 0 0 L 300 0 L 300 450 L 0 450 z" stroke-linecap="round" />
    </g>
    <g transform="matrix(1,0,0,1,150,261)">
        <g transform="matrix(1,0,0,1,-150,-189)" id="image-icon">
            <path fill="var(--c-image-icon, black)" vector-effect="non-scaling-stroke" d="M202.145,-0.27C97.797,-0.27 58.664,25.797 58.664,97.488L58.664,136.746C56.004,140.934 52.145,148.836 52.145,159.402C52.145,175.57 61.949,186.754 66.641,191.172C71.832,204.645 80.879,217.719 90.93,229.145L88.051,270.934L-26.117,306.039L-26.094,378L325.848,378.016L326.055,306.039L211.887,270.934L209.008,229.145C219.059,217.711 228.109,204.645 233.301,191.172C237.988,186.754 247.797,175.57 247.797,159.402C247.797,148.836 243.934,140.934 241.273,136.746L241.273,97.488C241.273,74.68 234.754,38.832 215.188,38.832L202.145,-0.27ZM91.273,71.418C91.273,71.418 120.621,77.938 149.969,77.938C179.316,77.938 202.145,71.418 202.145,71.418C217.945,84.957 221.176,113.809 221.707,130.469L221.707,139.852L221.746,141.125C221.73,141.465 221.707,143.109 221.707,143.109L221.797,143.082L221.813,143.441L223.988,146.137C224.164,146.352 228.23,151.43 228.23,159.402C228.23,170.344 219.094,177.656 219.059,177.68L216.703,179.465L215.723,182.262C204.262,215.156 166.355,242.961 157.98,247.387L141.945,247.387C133.57,242.961 95.664,215.156 84.203,182.262L83.238,179.465L80.879,177.68C80.797,177.609 71.707,170.422 71.707,159.402C71.707,151.43 75.777,146.352 75.859,146.242L78.23,143.492L78.23,121.277C78.934,103.879 81.703,80.984 91.273,71.418ZM109.285,247.438C122.949,259.355 135.477,266.938 140.188,266.938L159.754,266.938C164.461,266.938 176.992,259.355 190.652,247.438L194.438,302.309C187.652,306.133 172.949,312.559 149.969,312.559C126.992,312.559 112.289,306.133 105.504,302.309L109.285,247.438Z" style="fill-rule:nonzero;"/>
        </g>
    </g>
</svg>