<?xml version="1.0" encoding="UTF-8" standalone="no" ?>
<svg xmlns="http://www.w3.org/2000/svg" xmlns:xlink="http://www.w3.org/1999/xlink" version="1.1" width="300" height="450" viewBox="0 0 300 450" xml:space="preserve">
    <g transform="matrix(1 0 0 1 150 225)" id="background"  >
        <path fill="var(--c-background, white)" vector-effect="non-scaling-stroke"  transform=" translate(-150, -225)" d="M 0 0 L 300 0 L 300 450 L 0 450 z" stroke-linecap="round" />
    </g>
    <g transform="matrix(1,0,0,1,150,261)">
        <g transform="matrix(1,0,0,1,-150,-189)" id="image-icon">
            <path fill="var(--c-image-icon, black)" vector-effect="non-scaling-stroke" d="M150.055,0C52.23,0 48.969,117.309 13.098,162.93C13.098,180.715 56.285,230.75 103.359,249.477L101.625,269.395L0.055,306.309L0,378.34L300.176,378.277L300.055,306.309L198.484,269.395L196.957,251.816C245.188,235.594 280.488,185.25 280.488,175.965C280.488,136.863 257.715,0 150.055,0ZM169.621,61.914L176.141,91.242C189.91,91.242 200.328,81.641 205.363,75.902C213.711,91.547 215.273,109.594 215.273,120.57L215.273,140.121L215.375,143.711L217.555,146.41C217.73,146.625 221.793,151.703 221.793,159.672C221.793,170.613 212.656,177.926 212.625,177.953L210.266,179.734L209.285,182.535C196.309,219.813 167.313,247.656 150.055,247.656C132.801,247.656 103.805,219.813 90.824,182.535L89.844,179.734L87.488,177.953C87.395,177.879 78.316,170.691 78.316,159.672C78.316,151.703 82.383,146.621 82.469,146.512L84.84,143.762L84.84,120.57C84.84,119.605 84.938,118.324 84.965,117.258C85.355,117.129 143.621,97.637 169.621,61.914ZM122.301,257.418C131.691,263.621 141.227,267.207 150.055,267.207C158.887,267.207 168.426,263.621 177.813,257.418L181.57,300.594C174.957,303.559 164.988,306.309 150.055,306.309C135.121,306.309 125.152,303.559 118.543,300.594L122.301,257.418Z" style="fill-rule:nonzero;"/>
        </g>
    </g>
</svg>