<?xml version="1.0" encoding="UTF-8" standalone="no" ?>
<svg xmlns="http://www.w3.org/2000/svg" xmlns:xlink="http://www.w3.org/1999/xlink" version="1.1" width="300" height="450" viewBox="0 0 300 450" xml:space="preserve">
    <g transform="matrix(1 0 0 1 150 225)" id="background"  >
        <path fill="var(--c-background, white)" vector-effect="non-scaling-stroke"  transform=" translate(-150, -225)" d="M 0 0 L 300 0 L 300 450 L 0 450 z" stroke-linecap="round" />
    </g>
    <g transform="matrix(1 0 0 1 150 225)" id="image-icon"  >
        <path fill="var(--c-image-icon, black)" vector-effect="non-scaling-stroke"  transform=" translate(-75, -65.74)" d="M 44.613 25.827 C 36.832499999999996 25.827 30.525 32.1345 30.525 39.915 C 30.525 47.695499999999996 36.832499999999996 54.0015 44.613 54.0015 C 52.3935 54.0015 58.701 47.694 58.701 39.915 C 58.701 32.1345 52.3905 25.826999999999998 44.613 25.826999999999998 z M 131.22 0 L 18.522000000000006 0 C 8.412000000000006 0 7.105427357601002e-15 8.409 7.105427357601002e-15 18.783 L 7.105427357601002e-15 112.69811 C 7.105427357601002e-15 123.07211 8.409000000000008 131.48111 18.519000000000005 131.48111 L 131.21699999999998 131.48111 C 141.59099999999998 131.48111 150 123.07211 150 112.69811 L 150 18.783 C 150.003 8.409 141.8445 0 131.22 0 z M 135.915 110.73162 L 95.76599999999999 56.173610000000004 C 95.03249999999998 54.82361 93.35999999999999 54.00161000000001 91.56899999999999 54.00161000000001 C 89.77499999999999 54.00161000000001 88.09949999999999 54.81461000000001 87.10499999999999 56.16761 L 55.81949999999999 98.45862 L 44.93399999999999 84.92862 C 43.92449999999999 83.67312 42.31199999999999 82.93061999999999 40.59899999999999 82.93061999999999 C 38.88449999999999 82.93061999999999 37.27349999999999 83.67312 36.26099999999999 84.92862 L 14.096999999999987 112.46112 C 14.096999999999987 112.45212 14.096999999999987 112.47012 14.096999999999987 112.46112 L 14.084999999999987 18.784509999999997 C 14.084999999999987 16.19551 16.19099999999999 14.088009999999997 18.781499999999987 14.088009999999997 L 131.47949999999997 14.088009999999997 C 134.06849999999997 14.088009999999997 136.176 16.19401 136.176 18.784509999999997 L 136.176 110.73312 z" stroke-linecap="round" />
    </g>
</svg>