<?xml version="1.0" standalone="no"?>
<!DOCTYPE svg PUBLIC "-//W3C//DTD SVG 20010904//EN"
 "http://www.w3.org/TR/2001/REC-SVG-20010904/DTD/svg10.dtd">
<svg version="1.0" xmlns="http://www.w3.org/2000/svg"
 width="700.000000pt" height="700.000000pt" viewBox="0 0 700.000000 700.000000"
 preserveAspectRatio="xMidYMid meet">
<metadata>
Created by potrace 1.14, written by Peter Selinger 2001-2017
</metadata>
<g transform="translate(0.000000,700.000000) scale(0.100000,-0.100000)"
fill="#000000" stroke="none">
<path d="M2428 6553 c-8 -10 -20 -47 -26 -83 -6 -36 -18 -106 -27 -157 l-17
-92 -162 -79 c-1106 -538 -1773 -1674 -1697 -2890 9 -147 27 -284 68 -502 4
-24 2 -25 -42 -25 -41 0 -51 -5 -80 -37 -41 -45 -52 -94 -37 -168 18 -84 15
-138 -5 -148 -10 -5 -44 -12 -76 -16 -32 -3 -72 -13 -88 -21 -31 -16 -59 -61
-59 -95 0 -18 -6 -20 -74 -20 -108 0 -106 4 -106 -204 0 -120 4 -176 12 -184
9 -9 129 -12 478 -12 l466 0 62 -90 c255 -367 589 -679 965 -899 993 -582
2244 -543 3197 99 312 210 569 463 799 788 l73 102 462 0 c346 0 465 3 474 12
8 8 12 64 12 184 0 144 -3 175 -16 188 -12 13 -41 16 -155 16 l-139 0 0 30 c0
68 -58 152 -125 181 -22 9 -64 20 -93 24 -49 6 -53 9 -47 29 16 55 17 95 2
126 -15 30 -15 38 8 133 57 232 69 357 70 687 0 347 -13 465 -85 745 -225 884
-849 1628 -1678 2001 -110 50 -99 31 -132 224 -13 75 -30 143 -38 153 -14 16
-78 17 -1072 17 -994 0 -1058 -1 -1072 -17z m360 -85 c-3 -7 -85 -500 -184
-1095 l-179 -1083 -159 0 -158 0 5 28 c3 15 89 507 193 1095 l188 1067 149 0
c115 0 148 -3 145 -12z m562 -2 c0 -26 159 -2081 165 -2128 l6 -48 -292 0
-291 0 4 73 c3 39 40 532 84 1095 l79 1022 122 0 c98 0 123 -3 123 -14z m614
-13 c17 -83 376 -2133 376 -2147 0 -14 -19 -16 -150 -16 -84 0 -150 4 -150 9
0 5 -81 496 -180 1090 -99 595 -180 1084 -180 1086 0 3 63 5 139 5 l139 0 6
-27z m733 -1063 c105 -597 192 -1088 192 -1092 1 -5 -48 -8 -107 -8 l-109 0
-177 1068 c-98 587 -180 1080 -183 1095 l-6 28 99 -3 99 -3 192 -1085z m238
555 c238 -138 421 -279 615 -474 157 -158 238 -256 359 -436 426 -634 582
-1424 431 -2171 -35 -173 -26 -159 -106 -162 l-69 -2 -22 39 c-27 48 -107 91
-167 91 -56 -1 -115 -30 -157 -77 l-34 -39 -345 110 c-190 62 -351 114 -359
117 -12 4 -7 22 22 91 148 343 124 755 -65 1132 l-49 99 -65 366 c-36 201
-105 598 -154 881 -50 283 -93 527 -96 542 l-6 28 84 -39 c46 -21 128 -64 183
-96z m-2609 108 c-3 -10 -30 -162 -61 -338 -30 -176 -100 -570 -154 -875 l-99
-555 -61 -118 c-114 -223 -165 -445 -159 -689 1 -76 1 -138 -2 -138 -3 1 -16
7 -30 15 -14 8 -45 14 -70 15 -71 0 -110 -33 -161 -135 -51 -105 -65 -111
-148 -66 -82 43 -122 42 -171 -7 -50 -49 -58 -92 -35 -180 31 -118 31 -122 2
-122 -13 0 -41 7 -60 15 -20 8 -59 15 -86 15 -42 0 -56 -5 -85 -30 -41 -37
-60 -87 -53 -141 l5 -39 -29 25 c-40 33 -92 42 -135 22 l-33 -16 -10 37 c-101
402 -106 890 -15 1302 105 467 313 889 619 1250 177 208 451 446 675 585 112
69 329 185 348 185 8 0 11 -7 8 -17z m2647 -1960 c135 -290 169 -596 98 -876
-46 -177 -142 -344 -287 -496 -46 -49 -84 -95 -84 -104 0 -35 -176 -170 -308
-236 -59 -30 -65 -31 -81 -17 -10 9 -22 16 -28 16 -6 0 -71 -20 -144 -45 -153
-50 -334 -89 -493 -104 -60 -6 -288 -11 -505 -10 l-396 1 94 19 c118 23 189
57 240 116 43 48 81 135 81 183 l0 30 150 0 c261 0 453 33 574 98 67 36 157
126 185 185 42 86 43 202 5 284 -26 53 -87 109 -147 133 -61 24 -72 26 258
-46 143 -31 278 -60 300 -65 124 -26 240 1 322 76 170 152 177 430 16 676 -63
98 -133 145 -266 178 -202 52 -485 30 -656 -49 l-63 -30 -509 0 -510 0 -48 25
c-174 88 -506 107 -703 41 -38 -12 -68 -21 -68 -18 0 2 14 33 32 68 l32 64
1431 0 1432 0 46 -97z m-513 -334 c0 -188 -8 -215 -75 -254 l-42 -25 -302 0
c-337 0 -349 2 -397 66 -27 34 -29 45 -32 138 -2 56 -9 107 -14 114 -8 9 -79
12 -293 12 -214 0 -285 -3 -293 -12 -5 -7 -12 -56 -14 -109 -3 -84 -7 -102
-30 -136 -47 -71 -56 -73 -403 -73 -294 0 -309 1 -345 21 -69 39 -80 73 -80
258 l0 161 1160 0 1160 0 0 -161z m-939 -112 c5 -97 36 -155 114 -219 95 -76
133 -100 188 -119 l52 -18 -65 4 c-36 3 -110 7 -165 10 -134 6 -171 18 -225
72 l-45 46 54 25 c93 44 115 116 51 174 -33 30 -115 58 -170 58 -90 0 -193
-55 -205 -109 -12 -55 42 -117 118 -136 15 -4 27 -9 27 -12 0 -21 -53 -70 -97
-90 -47 -22 -72 -25 -196 -29 l-142 -5 51 21 c79 32 128 80 174 173 32 64 42
98 47 155 l6 72 212 0 213 0 3 -73z m-1756 -398 c50 -30 51 -32 81 -130 l31
-99 -81 -39 c-213 -103 -319 -243 -346 -454 -9 -77 -3 -183 15 -249 3 -10 8
-27 11 -38 5 -20 1 -20 -595 -20 -338 0 -602 4 -605 9 -11 17 24 33 87 41 129
16 171 84 141 226 -18 86 -18 105 0 129 13 18 14 18 41 -1 67 -47 82 -54 118
-54 30 0 46 8 80 40 l43 39 49 -34 c61 -44 106 -57 146 -43 37 13 45 42 24 90
-18 44 -20 109 -3 126 16 16 48 15 91 -3 54 -22 138 -20 171 6 22 17 26 28 26
73 0 30 -7 73 -15 96 -21 60 -22 117 -2 137 14 14 21 13 76 -16 90 -46 160
-40 209 19 7 8 30 49 52 92 52 101 71 108 155 57z m904 1 c-109 -58 -168 -220
-125 -342 l13 -37 -41 -6 c-22 -3 -124 -17 -226 -30 l-185 -25 -23 28 c-33 40
-110 193 -138 274 l-24 70 23 -7 c113 -34 153 -31 477 40 274 59 303 63 249
35z m1026 -122 c-84 -60 -146 -140 -169 -215 -9 -29 17 -32 36 -4 36 51 160
143 261 193 56 28 62 29 109 18 42 -11 52 -18 64 -46 52 -125 -43 -281 -213
-349 -64 -25 -187 -48 -323 -60 l-76 -6 4 39 c5 53 -19 97 -65 117 -36 16 -38
19 -38 65 0 42 -5 54 -33 83 l-33 34 48 31 c109 70 273 116 423 120 l35 1 -30
-21z m-765 -108 c11 -11 23 -38 26 -60 9 -58 32 -72 91 -54 55 17 97 18 124 4
15 -9 19 -22 19 -65 0 -62 15 -84 77 -110 25 -11 33 -19 26 -26 -7 -7 -18 -6
-36 2 -22 10 -34 9 -69 -4 -23 -9 -42 -16 -43 -14 -1 1 -13 23 -28 49 -15 25
-46 62 -69 82 -41 35 -131 76 -167 76 -10 0 -24 7 -31 15 -18 22 -25 92 -10
110 18 21 66 19 90 -5z m3122 -317 c15 -15 31 -41 34 -59 9 -50 27 -60 80 -46
67 18 138 15 165 -7 21 -17 22 -21 11 -58 -32 -106 1 -154 119 -171 42 -6 79
-18 91 -29 26 -23 48 -66 48 -93 0 -20 -5 -20 -224 -20 l-223 0 14 53 c45 166
-62 336 -250 397 -33 10 -36 14 -25 27 21 25 70 43 103 38 16 -3 42 -17 57
-32z m858 -653 l0 -80 -3410 0 -3410 0 0 80 0 80 3410 0 3410 0 0 -80z m-1046
-292 c-290 -405 -662 -718 -1109 -934 -263 -127 -531 -210 -821 -254 -175 -27
-518 -38 -689 -21 -609 59 -1146 284 -1613 675 -165 139 -410 408 -507 559
l-17 27 2397 0 2397 0 -38 -52z"/>
<path d="M2213 3801 c7 -84 36 -149 89 -197 44 -40 106 -70 118 -57 7 8 120
306 120 318 0 3 -75 5 -166 5 l-167 0 6 -69z"/>
<path d="M2628 3798 c-14 -40 -42 -117 -62 -170 -35 -97 -35 -98 -13 -98 23 0
22 0 144 328 3 7 -4 12 -18 12 -21 0 -28 -10 -51 -72z"/>
<path d="M3690 3803 c0 -105 68 -208 161 -247 l36 -15 57 153 c31 84 56 156
56 159 0 4 -70 7 -155 7 l-155 0 0 -57z"/>
<path d="M4125 3848 c-2 -7 -29 -80 -60 -162 -30 -82 -55 -151 -55 -153 0 -3
7 -3 16 -1 10 2 34 52 69 143 71 190 69 185 50 185 -8 0 -18 -6 -20 -12z"/>
<path d="M1320 2466 c-6 -8 -11 -23 -10 -33 4 -32 1 -34 -25 -17 -33 21 -64
10 -72 -27 -9 -48 -46 -32 -62 27 -9 36 -43 48 -72 25 -32 -26 -19 -83 31
-133 48 -48 101 -54 152 -17 15 10 39 19 52 19 14 0 40 13 58 29 26 23 33 36
33 69 0 22 -7 47 -14 56 -17 20 -55 21 -71 2z"/>
</g>
</svg>
